# This file uses centimeters as units for non-parametric coordinates.

mtllib Fish1_OBJ.mtl
g skinCluster1Set tweakSet1
v -1.755173 1.850646 0.194042
v -1.166168 2.248494 0.227789
v -0.209802 2.082744 0.495343
v 0.181030 2.049260 0.527304
v 0.571861 2.082744 0.491824
v 0.919418 2.127423 0.353063
v -2.027070 2.469205 0.007338
v -1.166168 2.381869 0.269211
v -0.218728 2.302388 0.590148
v 0.181030 2.290972 0.628223
v 0.580787 2.302388 0.586264
v 0.919418 2.346253 0.399801
v -1.166168 2.556540 0.269065
v -0.218728 2.636021 0.589872
v 0.181030 2.647437 0.628034
v 0.580787 2.636021 0.586178
v 0.919418 2.612135 0.399733
v -1.755173 3.087763 0.194014
v -1.166168 2.689915 0.227662
v -0.218728 2.912499 0.506174
v 0.198873 2.927446 0.513078
v 0.579310 2.894853 0.478650
v 0.901575 2.762866 0.335847
v -1.166168 2.731212 0.138080
v -0.318888 3.048283 0.295521
v 0.143678 3.087913 0.313666
v 0.606244 3.048283 0.291918
v 1.168357 2.792291 0.162439
v -2.301880 3.255310 0.007354
v -1.166168 2.731212 0.007180
v -0.318888 3.090742 0.006163
v 0.143678 3.130372 0.004278
v 0.606244 3.090742 0.002320
v 1.217277 2.827486 0.000892
v -1.755173 3.087763 -0.179345
v -1.166168 2.731212 -0.123933
v -0.318888 3.048283 -0.283563
v 0.143678 3.087913 -0.305080
v 0.606244 3.048283 -0.287097
v 1.168357 2.792291 -0.160424
v -1.166168 2.689915 -0.213709
v -0.218728 2.912499 -0.494591
v 0.198873 2.927446 -0.504383
v 0.579310 2.894853 -0.473591
v 0.901575 2.762866 -0.333296
v -1.166168 2.556540 -0.254799
v -0.218728 2.636021 -0.577574
v 0.181030 2.647437 -0.619202
v 0.580787 2.636021 -0.581172
v 0.919418 2.612135 -0.397663
v -1.166168 2.381869 -0.254887
v -0.218728 2.302388 -0.577660
v 0.181030 2.290972 -0.619238
v 0.580787 2.302388 -0.581234
v 0.919418 2.346253 -0.397767
v -1.755173 1.850646 -0.179320
v -1.166168 2.248494 -0.213646
v -0.209802 2.082744 -0.483224
v 0.181030 2.049260 -0.518104
v 0.571861 2.082744 -0.486541
v 0.919418 2.127423 -0.350546
v -1.166168 2.207197 -0.123823
v -0.318888 1.890126 -0.283250
v 0.143678 1.850496 -0.304581
v 0.606244 1.927117 -0.286792
v 1.168357 2.146118 -0.160519
v -2.301880 1.683099 0.007380
v -1.166168 2.207197 0.007269
v -0.318888 1.831412 0.006480
v 0.143678 1.791782 0.004776
v 0.606244 1.890126 0.002671
v 1.217277 2.110923 0.000991
v -1.166168 2.207197 0.138193
v -0.318888 1.890126 0.295856
v 0.143678 1.850496 0.314016
v 0.606244 1.927117 0.292159
v 1.168357 2.146118 0.162632
v 1.217277 2.349777 -0.178746
v 1.323044 2.349777 0.000281
v 1.217277 2.349777 0.179570
v 1.217277 2.588632 -0.178681
v 1.323044 2.588632 0.000266
v 1.217277 2.588632 0.179505
vt 0.343750 0.000000
vt 0.425000 0.000000
vt 0.475000 0.000000
vt 0.525000 0.000000
vt 0.575000 0.000000
vt 0.625000 0.000000
vt 0.250000 0.125000
vt 0.425000 0.083333
vt 0.475000 0.083333
vt 0.525000 0.083333
vt 0.575000 0.083333
vt 0.625000 0.083333
vt 0.425000 0.166667
vt 0.475000 0.166667
vt 0.525000 0.166667
vt 0.575000 0.166667
vt 0.625000 0.166667
vt 0.354167 0.270833
vt 0.425000 0.250000
vt 0.475000 0.250000
vt 0.525000 0.250000
vt 0.575000 0.250000
vt 0.625000 0.250000
vt 0.425000 0.312500
vt 0.475000 0.312500
vt 0.525000 0.312500
vt 0.575000 0.312500
vt 0.625000 0.312500
vt 0.375000 0.375000
vt 0.425000 0.375000
vt 0.475000 0.375000
vt 0.525000 0.375000
vt 0.575000 0.375000
vt 0.625000 0.375000
vt 0.375000 0.468750
vt 0.425000 0.437500
vt 0.475000 0.437500
vt 0.525000 0.437500
vt 0.575000 0.437500
vt 0.625000 0.437500
vt 0.425000 0.500000
vt 0.475000 0.500000
vt 0.525000 0.500000
vt 0.575000 0.500000
vt 0.625000 0.500000
vt 0.375000 0.625000
vt 0.425000 0.583333
vt 0.475000 0.583333
vt 0.525000 0.583333
vt 0.575000 0.583333
vt 0.625000 0.583333
vt 0.425000 0.666667
vt 0.475000 0.666667
vt 0.525000 0.666667
vt 0.575000 0.666667
vt 0.625000 0.666667
vt 0.375000 0.781250
vt 0.425000 0.750000
vt 0.475000 0.750000
vt 0.525000 0.750000
vt 0.575000 0.750000
vt 0.625000 0.750000
vt 0.425000 0.812500
vt 0.475000 0.812500
vt 0.525000 0.812500
vt 0.575000 0.812500
vt 0.625000 0.812500
vt 0.375000 0.875000
vt 0.425000 0.875000
vt 0.475000 0.875000
vt 0.525000 0.875000
vt 0.575000 0.875000
vt 0.625000 0.875000
vt 0.375000 0.968750
vt 0.425000 0.937500
vt 0.475000 0.937500
vt 0.525000 0.937500
vt 0.575000 0.937500
vt 0.625000 0.937500
vt 0.425000 1.000000
vt 0.475000 1.000000
vt 0.525000 1.000000
vt 0.575000 1.000000
vt 0.625000 1.000000
vt 0.875000 0.000000
vt 0.812500 0.000000
vt 0.750000 0.000000
vt 0.687500 0.000000
vt 0.875000 0.083333
vt 0.812500 0.083333
vt 0.750000 0.083333
vt 0.687500 0.083333
vt 0.875000 0.166667
vt 0.812500 0.166667
vt 0.750000 0.166667
vt 0.687500 0.166667
vt 0.875000 0.250000
vt 0.812500 0.250000
vt 0.750000 0.250000
vt 0.687500 0.250000
vt 0.156250 0.000000
vt 0.250000 0.000000
vt 0.156250 0.250000
vt 0.250000 0.250000
vn -0.220674 0.107505 0.969405
vn -0.256070 -0.030971 0.966162
vn -0.286290 -0.041482 0.957245
vn -0.224675 0.000009 0.974434
vn -0.238758 -0.366082 0.899432
vn -0.242919 -0.158510 0.957008
vn 0.004547 -0.392004 0.919952
vn 0.004537 -0.168836 0.985634
vn 0.267268 -0.345780 0.899446
vn 0.269676 -0.149697 0.951244
vn 0.440350 -0.283277 0.851966
vn 0.470070 -0.115479 0.875042
vn -0.289143 0.032522 0.956733
vn -0.237965 0.143005 0.960688
vn 0.012098 0.169232 0.985502
vn 0.271952 0.164457 0.948154
vn 0.490542 0.156190 0.857306
vn -0.262379 0.022951 0.964692
vn -0.220526 -0.107553 0.969433
vn -0.223498 0.303426 0.926273
vn 0.022660 0.357919 0.933478
vn 0.250940 0.376194 0.891912
vn 0.482633 0.357413 0.799576
vn 0.431182 0.859019 -0.275985
vn -0.272890 0.781982 0.560388
vn -0.091162 0.985543 0.142812
vn -0.217935 0.779813 0.586852
vn -0.258597 0.902577 0.344211
vn 0.022627 0.788844 0.614176
vn 0.005755 0.932785 0.360388
vn 0.275046 0.700821 0.658178
vn 0.269854 0.880132 0.390572
vn 0.461267 0.580556 0.670960
vn 0.440990 0.833988 0.331650
vn -0.001686 0.999999 0.000086
vn 0.447115 0.894476 -0.000091
vn -0.254032 0.967196 0.000245
vn 0.000000 1.000000 0.000014
vn 0.256163 0.966634 -0.000138
vn 0.423089 0.906088 -0.000435
vn -0.091952 0.985534 -0.142367
vn 0.431297 0.858967 0.275967
vn -0.259996 0.902479 -0.343416
vn 0.003082 0.932777 -0.360440
vn 0.267650 0.880385 -0.391518
vn 0.439655 0.834291 -0.332660
vn -0.274253 0.781972 -0.559736
vn -0.220143 0.779273 -0.586746
vn 0.018449 0.788301 -0.615014
vn 0.272039 0.701203 -0.659021
vn 0.458255 0.582796 -0.671082
vn -0.221266 -0.107663 -0.969252
vn -0.263404 0.022013 -0.964435
vn -0.290378 0.031673 -0.956388
vn -0.225329 -0.000088 -0.974283
vn -0.227576 0.301430 -0.925932
vn -0.241902 0.141842 -0.959877
vn 0.014258 0.357401 -0.933842
vn 0.003457 0.168837 -0.985638
vn 0.242553 0.377269 -0.893776
vn 0.264057 0.164742 -0.950334
vn 0.477564 0.359165 -0.801831
vn 0.484979 0.156970 -0.860323
vn -0.287449 -0.041348 -0.956903
vn -0.246843 -0.158350 -0.956030
vn -0.004269 -0.169188 -0.985574
vn 0.261616 -0.150365 -0.953387
vn 0.464205 -0.116284 -0.878061
vn -0.256933 -0.030518 -0.965947
vn -0.221258 0.107443 -0.969279
vn -0.242615 -0.364928 -0.898869
vn -0.004239 -0.392258 -0.919845
vn 0.258910 -0.347612 -0.901183
vn 0.434531 -0.285332 -0.854265
vn 0.431284 -0.858982 0.275942
vn -0.258356 -0.706583 -0.658781
vn -0.096931 -0.973865 -0.205403
vn -0.225716 -0.689301 -0.688415
vn -0.262358 -0.865836 -0.426024
vn 0.016617 -0.734279 -0.678644
vn 0.030568 -0.907655 -0.418603
vn 0.221167 -0.759833 -0.611342
vn 0.261269 -0.890248 -0.373092
vn 0.374031 -0.755839 -0.537410
vn 0.369079 -0.892087 -0.260695
vn -0.008982 -0.999960 0.000082
vn 0.447115 -0.894476 -0.000051
vn -0.258623 -0.965978 0.000318
vn 0.049347 -0.998782 -0.000028
vn 0.276562 -0.960996 -0.000152
vn 0.369008 -0.929426 -0.000516
vn -0.096171 -0.973817 0.205989
vn 0.431199 -0.859007 -0.275997
vn -0.260806 -0.865800 0.427050
vn 0.033573 -0.907439 0.418842
vn 0.263999 -0.889773 0.372302
vn 0.370440 -0.891720 0.260017
vn -0.257048 -0.706247 0.659652
vn -0.223055 -0.689558 0.689025
vn 0.021173 -0.734013 0.678805
vn 0.225136 -0.758269 0.611834
vn 0.377220 -0.753498 0.538466
vn 0.715861 -0.246987 -0.653101
vn 0.593052 -0.189882 -0.782454
vn 0.595315 -0.079188 -0.799580
vn 0.706850 -0.108353 -0.699016
vn 0.938131 -0.346278 0.000963
vn 0.986050 -0.166452 -0.000391
vn 0.716860 -0.243895 0.653167
vn 0.708358 -0.107048 0.697689
vn 0.594805 -0.186715 0.781885
vn 0.597216 -0.077870 0.798291
vn 0.579698 0.111322 -0.807191
vn 0.701676 0.126683 -0.701144
vn 0.986038 0.166522 -0.000367
vn 0.703298 0.125379 0.699751
vn 0.581790 0.109896 0.805881
vn 0.544235 0.286375 -0.788542
vn 0.709485 0.309093 -0.633319
vn 0.938101 0.346362 0.000870
vn 0.710658 0.306207 0.633406
vn 0.546510 0.283001 0.788186
vn -0.354472 0.123868 -0.926826
vn -0.943981 0.330000 0.000036
vn -0.943981 0.330000 -0.000069
vn -0.354434 0.123954 0.926829
vn -0.943981 -0.330001 -0.000078
vn -0.943981 -0.330000 -0.000015
vn -0.354478 -0.123901 -0.926819
vn -0.354424 -0.123920 0.926837
s 1
g pCube3
usemtl initialShadingGroup
f 1/1/1 2/2/2 8/8/3 7/7/4
f 2/2/2 3/3/5 9/9/6 8/8/3
f 3/3/5 4/4/7 10/10/8 9/9/6
f 4/4/7 5/5/9 11/11/10 10/10/8
f 5/5/9 6/6/11 12/12/12 11/11/10
f 7/7/4 8/8/3 13/13/13
f 8/8/3 9/9/6 14/14/14 13/13/13
f 9/9/6 10/10/8 15/15/15 14/14/14
f 10/10/8 11/11/10 16/16/16 15/15/15
f 11/11/10 12/12/12 17/17/17 16/16/16
f 7/7/4 13/13/13 19/19/18 18/18/19
f 13/13/13 14/14/14 20/20/20 19/19/18
f 14/14/14 15/15/15 21/21/21 20/20/20
f 15/15/15 16/16/16 22/22/22 21/21/21
f 16/16/16 17/17/17 23/23/23 22/22/22
s 2
f 18/18/24 19/19/25 24/24/26
f 19/19/25 20/20/27 25/25/28 24/24/26
f 20/20/27 21/21/29 26/26/30 25/25/28
f 21/21/29 22/22/31 27/27/32 26/26/30
f 22/22/31 23/23/33 28/28/34 27/27/32
f 18/18/24 24/24/26 30/30/35 29/29/36
f 24/24/26 25/25/28 31/31/37 30/30/35
f 25/25/28 26/26/30 32/32/38 31/31/37
f 26/26/30 27/27/32 33/33/39 32/32/38
f 27/27/32 28/28/34 34/34/40 33/33/39
f 29/29/36 30/30/35 36/36/41 35/35/42
f 30/30/35 31/31/37 37/37/43 36/36/41
f 31/31/37 32/32/38 38/38/44 37/37/43
f 32/32/38 33/33/39 39/39/45 38/38/44
f 33/33/39 34/34/40 40/40/46 39/39/45
f 35/35/42 36/36/41 41/41/47
f 36/36/41 37/37/43 42/42/48 41/41/47
f 37/37/43 38/38/44 43/43/49 42/42/48
f 38/38/44 39/39/45 44/44/50 43/43/49
f 39/39/45 40/40/46 45/45/51 44/44/50
s 3
f 35/35/52 41/41/53 46/47/54 7/46/55
f 41/41/53 42/42/56 47/48/57 46/47/54
f 42/42/56 43/43/58 48/49/59 47/48/57
f 43/43/58 44/44/60 49/50/61 48/49/59
f 44/44/60 45/45/62 50/51/63 49/50/61
f 7/46/55 46/47/54 51/52/64
f 46/47/54 47/48/57 52/53/65 51/52/64
f 47/48/57 48/49/59 53/54/66 52/53/65
f 48/49/59 49/50/61 54/55/67 53/54/66
f 49/50/61 50/51/63 55/56/68 54/55/67
f 7/46/55 51/52/64 57/58/69 56/57/70
f 51/52/64 52/53/65 58/59/71 57/58/69
f 52/53/65 53/54/66 59/60/72 58/59/71
f 53/54/66 54/55/67 60/61/73 59/60/72
f 54/55/67 55/56/68 61/62/74 60/61/73
s 4
f 56/57/75 57/58/76 62/63/77
f 57/58/76 58/59/78 63/64/79 62/63/77
f 58/59/78 59/60/80 64/65/81 63/64/79
f 59/60/80 60/61/82 65/66/83 64/65/81
f 60/61/82 61/62/84 66/67/85 65/66/83
f 56/57/75 62/63/77 68/69/86 67/68/87
f 62/63/77 63/64/79 69/70/88 68/69/86
f 63/64/79 64/65/81 70/71/89 69/70/88
f 64/65/81 65/66/83 71/72/90 70/71/89
f 65/66/83 66/67/85 72/73/91 71/72/90
f 67/68/87 68/69/86 73/75/92 1/74/93
f 68/69/86 69/70/88 74/76/94 73/75/92
f 69/70/88 70/71/89 75/77/95 74/76/94
f 70/71/89 71/72/90 76/78/96 75/77/95
f 71/72/90 72/73/91 77/79/97 76/78/96
f 1/74/93 73/75/92 2/80/98
f 73/75/92 74/76/94 3/81/99 2/80/98
f 74/76/94 75/77/95 4/82/100 3/81/99
f 75/77/95 76/78/96 5/83/101 4/82/100
f 76/78/96 77/79/97 6/84/102 5/83/101
s 5
f 66/86/103 61/85/104 55/89/105 78/90/106
f 72/87/107 66/86/103 78/90/106 79/91/108
f 77/88/109 72/87/107 79/91/108 80/92/110
f 6/6/111 77/88/109 80/92/110 12/12/112
f 78/90/106 55/89/105 50/93/113 81/94/114
f 79/91/108 78/90/106 81/94/114 82/95/115
f 80/92/110 79/91/108 82/95/115 83/96/116
f 12/12/112 80/92/110 83/96/116 17/17/117
f 81/94/114 50/93/113 45/97/118 40/98/119
f 82/95/115 81/94/114 40/98/119 34/99/120
f 83/96/116 82/95/115 34/99/120 28/100/121
f 17/17/117 83/96/116 28/100/121 23/23/122
s 6
f 56/101/123 67/102/124 7/7/125
f 67/102/124 1/1/126 7/7/125
s 7
f 7/7/127 29/104/128 35/103/129
f 7/7/127 18/18/130 29/104/128
