# This file uses centimeters as units for non-parametric coordinates.

mtllib Pool_2.mtl
g default
v 2.887190 0.139622 -0.744139
v 2.378967 0.139622 -1.317806
v 1.662361 0.139622 -1.589579
v -3.231601 0.139622 -1.497198
v -3.862344 0.139622 -1.061828
v -4.218513 0.139622 -0.383205
v -4.218513 0.139622 0.383205
v -3.862345 0.139622 1.061827
v -3.231602 0.139622 1.497198
v 1.662360 0.139622 1.589579
v 2.378966 0.139622 1.317806
v 2.887190 0.139622 0.744140
v 3.070604 0.139622 0.000000
v 4.305030 0.139622 -1.488278
v 3.288583 0.139622 -2.635611
v -2.277769 0.139622 -3.179157
v -3.799413 0.139622 -2.994397
v -5.060900 0.139622 -2.123656
v -5.773237 0.139622 -0.766411
v -5.773237 0.139622 0.766410
v -5.060900 0.139622 2.123655
v -3.799413 0.139622 2.994396
v -2.277770 0.139622 3.179157
v 3.288582 0.139622 2.635612
v 4.305030 0.139622 1.488279
v 4.671857 0.139622 0.000000
v 6.958666 0.139622 -2.232418
v 5.433994 0.139622 -3.953417
v -2.084758 0.139622 -4.768736
v -4.367224 0.139622 -4.491595
v -6.259454 0.139622 -3.185484
v -7.327963 0.139622 -1.149616
v -7.327963 0.139622 1.149614
v -6.259455 0.139622 3.185482
v -4.367227 0.139622 4.491594
v -2.084761 0.139622 4.768736
v 5.433993 0.139622 3.953418
v 6.958665 0.139622 2.232419
v 7.508907 0.139622 0.000000
v 8.376506 0.139622 -2.976557
v 6.343610 0.139622 -5.271223
v -1.891748 0.139622 -6.358315
v -4.935037 0.139622 -5.988794
v -7.458008 0.139622 -4.247312
v -8.882684 0.139622 -1.532822
v -8.882683 0.139622 1.532819
v -7.458014 0.139622 4.247309
v -4.935038 0.139622 5.988792
v -1.891750 0.139622 6.358315
v 6.343609 0.139622 5.271224
v 8.376504 0.139622 2.976559
v 9.110160 0.139622 0.000000
v 9.794345 0.139622 -3.720696
v 7.253227 0.139622 -6.589028
v -1.698737 0.139622 -7.947893
v -5.502850 0.139622 -7.485992
v -8.656564 0.139622 -5.309139
v -10.437409 0.139622 -1.916028
v -10.437409 0.139622 1.916024
v -8.656567 0.139622 5.309137
v -5.502852 0.139622 7.485990
v -1.698741 0.139622 7.947893
v 7.253224 0.139622 6.589029
v 9.794343 0.139622 3.720698
v 10.711413 0.139622 0.000000
v 9.794345 3.283942 -3.720696
v 7.253227 3.283942 -6.589028
v -1.698737 3.283942 -7.947893
v -5.502850 3.283942 -7.485992
v -8.656564 3.283942 -5.309139
v -10.437409 3.283942 -1.916028
v -10.437409 3.283942 1.916024
v -8.656567 3.283942 5.309137
v -5.502852 3.283942 7.485990
v -1.698741 3.283942 7.947893
v 7.253224 3.283942 6.589029
v 9.794343 3.283942 3.720698
v 10.711413 3.283942 0.000000
v 8.376506 3.283942 -2.976557
v 6.343610 3.283942 -5.271223
v -1.891748 3.283942 -6.358315
v -4.935037 3.283942 -5.988794
v -7.458008 3.283942 -4.247312
v -8.882684 3.283942 -1.532822
v -8.882683 3.283942 1.532819
v -7.458014 3.283942 4.247309
v -4.935038 3.283942 5.988792
v -1.891750 3.283942 6.358315
v 6.343609 3.283942 5.271224
v 8.376504 3.283942 2.976559
v 9.110160 3.283942 0.000000
v 6.958665 0.944114 -2.232418
v 5.433994 0.944114 -3.953417
v -2.084758 0.944116 -4.768736
v -4.367223 0.944116 -4.491596
v -6.259456 0.944116 -3.185484
v -7.327961 0.944116 -1.149616
v -7.327961 0.944116 1.149614
v -6.259456 0.944116 3.185482
v -4.367228 0.944116 4.491594
v -2.084759 0.944116 4.768736
v 5.433993 0.944114 3.953418
v 6.958665 0.944114 2.232419
v 7.508907 0.944114 0.000000
v -2.663789 0.139622 0.000000
v -2.663789 0.944116 0.000000
vt 0.527671 0.141727
vt 0.517752 0.130532
vt 0.503767 0.125228
vt 0.488919 0.127031
vt 0.476609 0.135527
vt 0.469658 0.148771
vt 0.469658 0.163729
vt 0.476609 0.176973
vt 0.488919 0.185469
vt 0.503767 0.187272
vt 0.517752 0.181968
vt 0.527671 0.170773
vt 0.531250 0.156250
vt 0.555341 0.127205
vt 0.535504 0.104814
vt 0.507534 0.094206
vt 0.477837 0.097811
vt 0.453218 0.114805
vt 0.439316 0.141293
vt 0.439316 0.171207
vt 0.453218 0.197695
vt 0.477837 0.214689
vt 0.507534 0.218294
vt 0.535504 0.207686
vt 0.555341 0.185295
vt 0.562500 0.156250
vt 0.583012 0.112682
vt 0.553256 0.079095
vt 0.511300 0.063184
vt 0.466756 0.068592
vt 0.429827 0.094082
vt 0.408974 0.133814
vt 0.408974 0.178686
vt 0.429827 0.218418
vt 0.466756 0.243908
vt 0.511300 0.249316
vt 0.553256 0.233405
vt 0.583012 0.199818
vt 0.593750 0.156250
vt 0.610682 0.098160
vt 0.571008 0.053377
vt 0.515067 0.032161
vt 0.455674 0.039373
vt 0.406436 0.073360
vt 0.378632 0.126336
vt 0.378632 0.186164
vt 0.406436 0.239140
vt 0.455674 0.273127
vt 0.515067 0.280339
vt 0.571008 0.259123
vt 0.610682 0.214340
vt 0.625000 0.156250
vt 0.638353 0.083637
vt 0.588760 0.027659
vt 0.518834 0.001139
vt 0.444593 0.010154
vt 0.383045 0.052637
vt 0.348290 0.118857
vt 0.348290 0.193643
vt 0.383045 0.259863
vt 0.444593 0.302346
vt 0.518834 0.311361
vt 0.588760 0.284841
vt 0.638353 0.228863
vt 0.656250 0.156250
vt 0.375000 0.312500
vt 0.394231 0.312500
vt 0.413462 0.312500
vt 0.432692 0.312500
vt 0.451923 0.312500
vt 0.471154 0.312500
vt 0.490385 0.312500
vt 0.509615 0.312500
vt 0.528846 0.312500
vt 0.548077 0.312500
vt 0.567308 0.312500
vt 0.586539 0.312500
vt 0.605769 0.312500
vt 0.625000 0.312500
vt 0.375000 0.688440
vt 0.394231 0.688440
vt 0.413462 0.688440
vt 0.432692 0.688440
vt 0.451923 0.688440
vt 0.471154 0.688440
vt 0.490385 0.688440
vt 0.509615 0.688440
vt 0.528846 0.688440
vt 0.548077 0.688440
vt 0.567308 0.688440
vt 0.586539 0.688440
vt 0.605769 0.688440
vt 0.625000 0.688440
vt 0.638353 0.771137
vt 0.588760 0.715159
vt 0.518834 0.688639
vt 0.444593 0.697654
vt 0.383045 0.740137
vt 0.348290 0.806357
vt 0.348290 0.881143
vt 0.383045 0.947363
vt 0.444593 0.989846
vt 0.518834 0.998861
vt 0.588760 0.972341
vt 0.638353 0.916363
vt 0.656250 0.843750
vt 0.610682 0.785660
vt 0.571008 0.740877
vt 0.515067 0.719661
vt 0.455674 0.726873
vt 0.406436 0.760860
vt 0.378632 0.813836
vt 0.378632 0.873664
vt 0.406436 0.926640
vt 0.455674 0.960627
vt 0.515067 0.967839
vt 0.571008 0.946623
vt 0.610682 0.901840
vt 0.625000 0.843750
vt 0.583012 0.800182
vt 0.553256 0.766595
vt 0.511300 0.750684
vt 0.466756 0.756092
vt 0.429827 0.781582
vt 0.408974 0.821314
vt 0.408974 0.866186
vt 0.429827 0.905918
vt 0.466756 0.931408
vt 0.511300 0.936816
vt 0.553256 0.920905
vt 0.583012 0.887318
vt 0.593750 0.843750
vt 0.500000 0.150000
vt 0.500000 0.837500
vn 0.000000 -1.000000 0.000000
vn 0.000000 -1.000000 0.000000
vn 0.000000 -1.000000 0.000000
vn 0.000000 -1.000000 0.000000
vn 0.000000 -1.000000 0.000000
vn 0.000000 -1.000000 0.000000
vn 0.000000 -1.000000 0.000000
vn 0.000000 -1.000000 0.000000
vn 0.000000 -1.000000 0.000000
vn 0.000000 -1.000000 0.000000
vn 0.000000 -1.000000 0.000000
vn 0.000000 -1.000000 0.000000
vn 0.000000 -1.000000 0.000000
vn 0.000000 -1.000000 0.000000
vn 0.000000 -1.000000 0.000000
vn 0.000000 -1.000000 0.000000
vn 0.000000 -1.000000 0.000000
vn 0.000000 -1.000000 0.000000
vn 0.000000 -1.000000 0.000000
vn 0.000000 -1.000000 0.000000
vn 0.000000 -1.000000 -0.000000
vn 0.000000 -1.000000 -0.000000
vn 0.000000 -1.000000 -0.000000
vn 0.000000 -1.000000 -0.000000
vn 0.000000 -1.000000 -0.000000
vn 0.000000 -1.000000 0.000000
vn -0.000000 -1.000000 0.000000
vn -0.000000 -1.000000 0.000000
vn -0.000000 -1.000000 0.000000
vn 0.000000 -1.000000 0.000000
vn 0.000000 -1.000000 0.000000
vn 0.000000 -1.000000 0.000000
vn 0.000000 -1.000000 -0.000000
vn 0.000000 -1.000000 -0.000000
vn 0.000000 -1.000000 -0.000000
vn -0.000000 -1.000000 -0.000000
vn -0.000000 -1.000000 -0.000000
vn -0.000000 -1.000000 -0.000000
vn -0.000000 -1.000000 0.000000
vn 0.000000 -1.000000 -0.000000
vn 0.000000 -1.000000 -0.000000
vn 0.000000 -1.000000 0.000000
vn -0.000000 -1.000000 -0.000000
vn -0.000000 -1.000000 0.000000
vn -0.000000 -1.000000 0.000000
vn -0.000000 -1.000000 0.000000
vn -0.000000 -1.000000 0.000000
vn -0.000000 -1.000000 0.000000
vn 0.000000 -1.000000 0.000000
vn 0.000000 -1.000000 0.000000
vn 0.000000 -1.000000 0.000000
vn 0.000000 -1.000000 0.000000
vn 0.000000 -1.000000 -0.000000
vn 0.000000 -1.000000 -0.000000
vn 0.000000 -1.000000 -0.000000
vn -0.000000 -1.000000 -0.000000
vn -0.000000 -1.000000 -0.000000
vn -0.000000 -1.000000 0.000000
vn -0.000000 -1.000000 0.000000
vn -0.000000 -1.000000 0.000000
vn -0.000000 -1.000000 0.000000
vn 0.000000 -1.000000 0.000000
vn 0.000000 -1.000000 0.000000
vn 0.000000 -1.000000 0.000000
vn 0.000000 -1.000000 0.000000
vn 0.885456 0.000000 -0.464723
vn 0.345195 0.000000 -0.938531
vn 0.345195 0.000000 -0.938531
vn 0.885456 0.000000 -0.464723
vn 0.070143 0.000000 -0.997537
vn 0.070143 0.000000 -0.997537
vn -0.354605 0.000000 -0.935016
vn -0.354605 0.000000 -0.935016
vn -0.748511 0.000000 -0.663123
vn -0.748511 0.000000 -0.663123
vn -0.970942 0.000000 -0.239316
vn -0.970942 0.000000 -0.239316
vn -0.970942 0.000000 0.239315
vn -0.970942 0.000000 0.239315
vn -0.748511 0.000000 0.663122
vn -0.748511 0.000000 0.663122
vn -0.354605 0.000000 0.935016
vn -0.354605 0.000000 0.935016
vn 0.070143 0.000000 0.997537
vn 0.070143 0.000000 0.997537
vn 0.345195 0.000000 0.938531
vn 0.345195 0.000000 0.938531
vn 0.885456 0.000000 0.464723
vn 0.885456 0.000000 0.464723
vn 1.000000 0.000000 0.000000
vn 1.000000 0.000000 0.000000
vn 0.000000 1.000000 -0.000000
vn 0.000000 1.000000 -0.000000
vn -0.149460 0.862674 0.483172
vn -0.444929 0.864586 0.233517
vn 0.000000 1.000000 0.000000
vn -0.034347 0.822272 0.568058
vn 0.000000 1.000000 0.000000
vn 0.178184 0.864586 0.469832
vn 0.000000 1.000000 0.000000
vn 0.376116 0.864586 0.333210
vn 0.000000 1.000000 0.000000
vn 0.487884 0.864586 0.120253
vn 0.000000 1.000000 0.000000
vn 0.487885 0.864586 -0.120252
vn 0.000000 1.000000 0.000000
vn 0.376116 0.864586 -0.333209
vn 0.000000 1.000000 0.000000
vn 0.178184 0.864586 -0.469832
vn 0.000000 1.000000 0.000000
vn -0.034347 0.822272 -0.568058
vn 0.000000 1.000000 0.000000
vn -0.149460 0.862674 -0.483172
vn 0.000000 1.000000 0.000000
vn -0.444929 0.864585 -0.233517
vn 0.000000 1.000000 0.000000
vn -0.502486 0.864586 -0.000000
vn -0.166710 0.818850 0.549265
vn -0.372835 0.907030 0.195679
vn -0.031361 0.844148 0.535193
vn 0.204747 0.816465 0.539874
vn 0.432187 0.816465 0.382884
vn 0.560618 0.816464 0.138180
vn 0.560618 0.816464 -0.138180
vn 0.432187 0.816465 -0.382884
vn 0.204747 0.816465 -0.539874
vn -0.031361 0.844147 -0.535193
vn -0.166710 0.818850 -0.549265
vn -0.372835 0.907030 -0.195679
vn -0.409235 0.912429 -0.000000
vn 0.000000 -1.000000 -0.000000
vn 0.000000 1.000000 0.000000
s 1
g pCylinder3
usemtl initialShadingGroup
f 1/1/1 2/2/2 15/15/3 14/14/4
f 2/2/2 3/3/5 16/16/6 15/15/3
f 3/3/5 4/4/7 17/17/8 16/16/6
f 4/4/7 5/5/9 18/18/10 17/17/8
f 5/5/9 6/6/11 19/19/12 18/18/10
f 6/6/11 7/7/13 20/20/14 19/19/12
f 7/7/13 8/8/15 21/21/16 20/20/14
f 8/8/15 9/9/17 22/22/18 21/21/16
f 9/9/17 10/10/19 23/23/20 22/22/18
f 10/10/19 11/11/21 24/24/22 23/23/20
f 11/11/21 12/12/23 25/25/24 24/24/22
f 12/12/23 13/13/25 26/26/26 25/25/24
f 13/13/25 1/1/1 14/14/4 26/26/26
f 14/14/4 15/15/3 28/28/27 27/27/28
f 15/15/3 16/16/6 29/29/29 28/28/27
f 16/16/6 17/17/8 30/30/30 29/29/29
f 17/17/8 18/18/10 31/31/31 30/30/30
f 18/18/10 19/19/12 32/32/32 31/31/31
f 19/19/12 20/20/14 33/33/33 32/32/32
f 20/20/14 21/21/16 34/34/34 33/33/33
f 21/21/16 22/22/18 35/35/35 34/34/34
f 22/22/18 23/23/20 36/36/36 35/35/35
f 23/23/20 24/24/22 37/37/37 36/36/36
f 24/24/22 25/25/24 38/38/38 37/37/37
f 25/25/24 26/26/26 39/39/39 38/38/38
f 26/26/26 14/14/4 27/27/28 39/39/39
f 27/27/28 28/28/27 41/41/40 40/40/41
f 28/28/27 29/29/29 42/42/42 41/41/40
f 29/29/29 30/30/30 43/43/43 42/42/42
f 30/30/30 31/31/31 44/44/44 43/43/43
f 31/31/31 32/32/32 45/45/45 44/44/44
f 32/32/32 33/33/33 46/46/46 45/45/45
f 33/33/33 34/34/34 47/47/47 46/46/46
f 34/34/34 35/35/35 48/48/48 47/47/47
f 35/35/35 36/36/36 49/49/49 48/48/48
f 36/36/36 37/37/37 50/50/50 49/49/49
f 37/37/37 38/38/38 51/51/51 50/50/50
f 38/38/38 39/39/39 52/52/52 51/51/51
f 39/39/39 27/27/28 40/40/41 52/52/52
f 40/40/41 41/41/40 54/54/53 53/53/54
f 41/41/40 42/42/42 55/55/55 54/54/53
f 42/42/42 43/43/43 56/56/56 55/55/55
f 43/43/43 44/44/44 57/57/57 56/56/56
f 44/44/44 45/45/45 58/58/58 57/57/57
f 45/45/45 46/46/46 59/59/59 58/58/58
f 46/46/46 47/47/47 60/60/60 59/59/59
f 47/47/47 48/48/48 61/61/61 60/60/60
f 48/48/48 49/49/49 62/62/62 61/61/61
f 49/49/49 50/50/50 63/63/63 62/62/62
f 50/50/50 51/51/51 64/64/64 63/63/63
f 51/51/51 52/52/52 65/65/65 64/64/64
f 52/52/52 40/40/41 53/53/54 65/65/65
s 2
f 53/66/66 54/67/67 67/81/68 66/80/69
f 54/67/67 55/68/70 68/82/71 67/81/68
f 55/68/70 56/69/72 69/83/73 68/82/71
f 56/69/72 57/70/74 70/84/75 69/83/73
f 57/70/74 58/71/76 71/85/77 70/84/75
f 58/71/76 59/72/78 72/86/79 71/85/77
f 59/72/78 60/73/80 73/87/81 72/86/79
f 60/73/80 61/74/82 74/88/83 73/87/81
f 61/74/82 62/75/84 75/89/85 74/88/83
f 62/75/84 63/76/86 76/90/87 75/89/85
f 63/76/86 64/77/88 77/91/89 76/90/87
f 64/77/88 65/78/90 78/92/91 77/91/89
f 65/78/90 53/79/66 66/93/69 78/92/91
s 3
f 66/105/92 67/104/93 80/117/94 79/118/95
f 67/104/93 68/103/96 81/116/97 80/117/94
f 68/103/96 69/102/98 82/115/99 81/116/97
f 69/102/98 70/101/100 83/114/101 82/115/99
f 70/101/100 71/100/102 84/113/103 83/114/101
f 71/100/102 72/99/104 85/112/105 84/113/103
f 72/99/104 73/98/106 86/111/107 85/112/105
f 73/98/106 74/97/108 87/110/109 86/111/107
f 74/97/108 75/96/110 88/109/111 87/110/109
f 75/96/110 76/95/112 89/108/113 88/109/111
f 76/95/112 77/94/114 90/107/115 89/108/113
f 77/94/114 78/106/116 91/119/117 90/107/115
f 78/106/116 66/105/92 79/118/95 91/119/117
f 79/118/95 80/117/94 93/130/118 92/131/119
f 80/117/94 81/116/97 94/129/120 93/130/118
f 81/116/97 82/115/99 95/128/121 94/129/120
f 82/115/99 83/114/101 96/127/122 95/128/121
f 83/114/101 84/113/103 97/126/123 96/127/122
f 84/113/103 85/112/105 98/125/124 97/126/123
f 85/112/105 86/111/107 99/124/125 98/125/124
f 86/111/107 87/110/109 100/123/126 99/124/125
f 87/110/109 88/109/111 101/122/127 100/123/126
f 88/109/111 89/108/113 102/121/128 101/122/127
f 89/108/113 90/107/115 103/120/129 102/121/128
f 90/107/115 91/119/117 104/132/130 103/120/129
f 91/119/117 79/118/95 92/131/119 104/132/130
s 1
f 2/2/2 1/1/1 105/133/131
f 3/3/5 2/2/2 105/133/131
f 4/4/7 3/3/5 105/133/131
f 5/5/9 4/4/7 105/133/131
f 6/6/11 5/5/9 105/133/131
f 7/7/13 6/6/11 105/133/131
f 8/8/15 7/7/13 105/133/131
f 9/9/17 8/8/15 105/133/131
f 10/10/19 9/9/17 105/133/131
f 11/11/21 10/10/19 105/133/131
f 12/12/23 11/11/21 105/133/131
f 13/13/25 12/12/23 105/133/131
f 1/1/1 13/13/25 105/133/131
s 3
f 93/130/118 106/134/132 92/131/119
f 94/129/120 106/134/132 93/130/118
f 95/128/121 106/134/132 94/129/120
f 96/127/122 106/134/132 95/128/121
f 97/126/123 106/134/132 96/127/122
f 98/125/124 106/134/132 97/126/123
f 99/124/125 106/134/132 98/125/124
f 100/123/126 106/134/132 99/124/125
f 101/122/127 106/134/132 100/123/126
f 102/121/128 106/134/132 101/122/127
f 103/120/129 106/134/132 102/121/128
f 104/132/130 106/134/132 103/120/129
f 92/131/119 106/134/132 104/132/130
