# This file uses centimeters as units for non-parametric coordinates.

mtllib cactus_2.mtl
g default
v -8.315371 0.000113 3.569634
v -8.319436 6.335665 3.610921
v -7.982084 0.000230 3.863745
v -8.022785 6.335685 3.873465
v -8.668684 0.000159 3.969926
v -8.633284 6.345442 3.914526
v -8.335769 0.000193 4.264024
v -8.373610 6.337559 4.228368
v -8.317869 2.814703 3.646500
v -8.136698 6.382014 3.701735
v -8.064236 2.810011 3.860058
v -8.097040 0.000203 3.658629
v -8.128566 6.371021 4.084968
v -8.352662 4.600488 4.233369
v -8.111265 0.000137 4.105626
v -8.636682 4.600163 3.983002
v -8.555037 0.000174 4.176669
v -8.539561 0.000065 3.728008
v -8.312862 6.535835 3.911285
v -8.491814 2.826693 3.806013
v -8.545106 4.687057 4.166063
v -8.180914 2.827674 4.048220
v -8.105821 2.818976 3.668560
v -8.007688 2.305620 3.846924
v -8.358124 3.944381 4.255015
v -8.666581 3.943846 3.996007
v -8.318796 2.305620 3.566266
v -8.538943 2.305620 3.730120
v -8.565605 3.888917 4.188633
v -8.109457 2.305620 4.099722
v -8.105201 2.246870 3.668544
v -8.543452 4.206894 3.745787
v -9.018172 5.073784 4.833361
v -7.849405 2.842977 3.116928
v -8.790451 4.670609 4.440290
v -8.650190 4.630815 4.561602
v -8.933080 4.609823 4.323498
v -8.672333 4.480598 4.668101
v -8.772472 4.283171 4.713418
v -9.028904 4.447950 4.387146
v -9.048314 4.249857 4.495854
v -8.940788 4.221398 4.688053
v -9.202931 5.017149 4.742053
v -8.983998 4.992661 4.971316
v -9.152870 4.914967 5.037735
v -9.279299 4.918880 4.904101
v -9.178330 5.116202 4.962112
v -7.696263 2.923749 3.404655
v -7.530263 2.740618 3.422163
v -7.478987 2.617207 3.252652
v -7.500170 2.553933 3.118659
v -7.695110 2.596407 3.028101
v -7.496256 3.338016 2.943964
v -7.456596 3.424116 3.059265
v -7.342388 3.292687 3.233545
v -7.252233 3.350482 3.071793
v -7.357873 3.319225 2.923965
v -8.611941 2.661876 3.965521
v -8.525498 2.632818 4.138459
v -8.339005 2.653716 4.202419
v -8.163116 4.200883 4.144184
v -8.047455 1.152334 3.864427
v -8.136758 1.127629 3.703239
v -8.505061 1.152265 3.758281
v -8.144526 1.152295 4.072346
v -8.318302 1.152285 3.622845
v -8.511955 1.152310 4.127215
v -8.334034 1.152319 4.193921
v -8.599715 1.152304 3.956798
vt 0.384925 0.065630
vt 0.380246 0.234458
vt 0.388302 0.120953
vt 0.382669 0.010306
vt 0.388565 0.010309
vt 0.376287 0.254505
vt 0.382834 0.120953
vt 0.378778 0.231541
vt 0.385118 0.065628
vt 0.377918 0.252480
vt 0.381462 0.225339
vt 0.381689 0.232548
vt 0.389752 0.144647
vt 0.391662 0.150021
vt 0.387058 0.316067
vt 0.386892 0.146134
vt 0.386845 0.214002
vt 0.384639 0.314259
vt 0.388146 0.314371
vt 0.376164 0.250690
vt 0.382844 0.136601
vt 0.387382 0.010308
vt 0.382100 0.314340
vt 0.388226 0.145092
vt 0.382747 0.065630
vt 0.378254 0.249914
vt 0.377792 0.223772
vt 0.388433 0.065631
vt 0.387353 0.145750
vt 0.385082 0.145338
vt 0.387245 0.065629
vt 0.387106 0.316581
vt 0.387254 0.120953
vt 0.382560 0.196942
vt 0.384948 0.137580
vt 0.384695 0.199604
vt 0.387340 0.064221
vt 0.394875 0.169256
vt 0.387236 0.010304
vt 0.381499 0.010306
vt 0.394118 0.173748
vt 0.395759 0.170450
vt 0.393565 0.170502
vt 0.393215 0.141830
vt 0.375215 0.246373
vt 0.378699 0.212899
vt 0.376520 0.246678
vt 0.384751 0.231093
vt 0.393743 0.135907
vt 0.387298 0.118134
vt 0.393525 0.132871
vt 0.391519 0.134909
vt 0.385100 0.120953
vt 0.395129 0.168192
vt 0.381828 0.231077
vt 0.381877 0.137996
vt 0.385161 0.323977
vt 0.385135 0.010303
vt 0.380431 0.215863
vt 0.382824 0.215642
vt 0.385093 0.314370
vt 0.377592 0.214265
vt 0.381521 0.199578
vt 0.382828 0.010301
vt 0.381672 0.065629
vt 0.382831 0.065627
vt 0.383130 0.146079
vt 0.384925 0.010307
vt 0.382771 0.235247
vn 0.103264 0.010156 -0.994602
vn 0.103264 0.010156 -0.994602
vn 0.103264 0.010156 -0.994602
vn 0.906112 0.002000 0.423033
vn 0.917590 0.042220 0.395280
vn 0.906113 0.000459 0.423036
vn -0.296156 -0.043682 0.954140
vn -0.320935 -0.029927 0.946628
vn -0.293931 -0.043266 0.954847
vn 0.403376 0.005440 -0.915018
vn 0.380626 0.049125 -0.923423
vn 0.406182 -0.001842 -0.913790
vn 0.769427 0.290044 0.569084
vn 0.763599 0.294740 0.574496
vn 0.761269 0.281596 0.584100
vn -0.307637 0.946038 -0.101838
vn -0.307637 0.946038 -0.101838
vn -0.307637 0.946038 -0.101838
vn 0.209400 0.810546 0.546962
vn 0.209400 0.810546 0.546962
vn 0.209400 0.810546 0.546962
vn 0.609350 -0.113829 0.784688
vn 0.695569 -0.022601 0.718104
vn 0.622580 -0.137871 0.770315
vn 0.617441 -0.138174 0.774387
vn 0.622580 -0.137871 0.770315
vn 0.598636 -0.137397 0.789150
vn -0.449963 -0.009224 -0.893000
vn -0.449963 -0.009224 -0.893000
vn -0.449963 -0.009224 -0.893000
vn -0.818948 -0.193903 -0.540117
vn -0.846208 -0.111195 -0.521122
vn -0.849043 -0.089434 -0.520698
vn -0.883804 0.046302 -0.465561
vn -0.905475 0.003641 -0.424385
vn -0.902644 0.000675 -0.430387
vn -0.639152 -0.493035 0.590255
vn -0.639152 -0.493035 0.590255
vn -0.639152 -0.493035 0.590255
vn 0.761269 0.281596 0.584100
vn 0.743415 0.233842 0.626620
vn 0.734631 0.204048 0.647056
vn 0.612461 -0.747798 0.256300
vn 0.612461 -0.747798 0.256300
vn 0.612461 -0.747798 0.256300
vn 0.019286 -0.882756 -0.469436
vn -0.004558 -0.876539 -0.481310
vn -0.009189 -0.875255 -0.483575
vn 0.186958 0.260036 0.947327
vn 0.186958 0.260036 0.947327
vn 0.186958 0.260036 0.947327
vn 0.276724 0.845654 0.456391
vn 0.276724 0.845654 0.456391
vn 0.276724 0.845654 0.456391
vn -0.827768 0.547219 -0.123900
vn -0.827768 0.547219 -0.123900
vn -0.827768 0.547219 -0.123900
vn -0.897758 0.019014 0.440079
vn -0.897758 0.019014 0.440079
vn -0.897758 0.019014 0.440079
vn 0.491181 0.798562 0.347910
vn 0.491181 0.798562 0.347910
vn 0.491181 0.798562 0.347910
vn 0.471797 -0.207324 0.856986
vn 0.598636 -0.137397 0.789150
vn 0.448220 -0.237500 0.861796
vn 0.887672 -0.167376 0.428979
vn 0.898848 -0.170348 0.403800
vn 0.885393 -0.166776 0.433896
vn -0.464269 0.788220 0.403935
vn -0.464269 0.788220 0.403935
vn -0.464269 0.788220 0.403935
vn -0.740845 0.189848 -0.644288
vn -0.737893 0.207350 -0.642277
vn -0.742192 0.186218 -0.643796
vn 0.637260 0.051421 0.768931
vn 0.637260 0.051421 0.768931
vn 0.637260 0.051421 0.768931
vn -0.193439 0.977180 0.087751
vn -0.193439 0.977180 0.087751
vn -0.193439 0.977180 0.087751
vn 0.027661 -0.443267 0.895963
vn 0.027661 -0.443267 0.895963
vn 0.027661 -0.443267 0.895963
vn -0.747650 0.104716 -0.655786
vn -0.747650 0.104716 -0.655786
vn -0.747650 0.104716 -0.655786
vn 0.065057 0.829722 -0.554372
vn 0.065057 0.829722 -0.554372
vn 0.065057 0.829722 -0.554372
vn 0.782219 -0.366743 0.503620
vn 0.782219 -0.366743 0.503620
vn 0.782219 -0.366743 0.503620
vn -0.620092 -0.108103 -0.777045
vn -0.620092 -0.108103 -0.777045
vn -0.620092 -0.108103 -0.777045
vn -0.168321 -0.215965 -0.961783
vn -0.168321 -0.215965 -0.961783
vn -0.168321 -0.215965 -0.961783
vn 0.152447 -0.760375 0.631340
vn 0.043042 -0.790550 0.610883
vn 0.019047 -0.795748 0.605329
vn 0.126381 0.732719 -0.668693
vn 0.171590 0.755165 -0.632679
vn 0.184678 0.761177 -0.621694
vn 0.127647 0.976654 0.172783
vn 0.127647 0.976654 0.172783
vn 0.127647 0.976654 0.172783
vn 0.832354 -0.007678 -0.554192
vn 0.832354 -0.007678 -0.554192
vn 0.832354 -0.007678 -0.554192
vn -0.908748 -0.025939 -0.416538
vn -0.926247 -0.090964 -0.365777
vn -0.928965 -0.103938 -0.355275
vn 0.189738 0.366330 0.910934
vn 0.189738 0.366330 0.910934
vn 0.189738 0.366330 0.910934
vn 0.574669 0.803937 0.153102
vn 0.574669 0.803937 0.153102
vn 0.574669 0.803937 0.153102
vn 0.792138 -0.365515 -0.488791
vn 0.792138 -0.365515 -0.488791
vn 0.792138 -0.365515 -0.488791
vn -0.605880 0.049995 -0.793984
vn -0.587067 0.000542 -0.809538
vn -0.587068 0.000911 -0.809537
vn 0.330770 0.847306 -0.415529
vn 0.330770 0.847306 -0.415529
vn 0.330770 0.847306 -0.415529
vn 0.350018 -0.291557 -0.890215
vn 0.350018 -0.291557 -0.890215
vn 0.350018 -0.291557 -0.890215
vn -0.529335 -0.835143 0.149470
vn -0.562191 -0.822797 0.083346
vn -0.520087 -0.837641 0.166936
vn 0.571418 0.047698 0.819272
vn 0.533966 0.004902 0.845492
vn 0.575822 0.048791 0.816118
vn 0.846862 -0.047990 0.529643
vn 0.859417 -0.042976 0.509467
vn 0.919821 -0.013771 0.392096
vn -0.640881 0.154810 -0.751868
vn -0.605880 0.049995 -0.793984
vn -0.660194 0.166389 -0.732434
vn -0.713999 0.165336 0.680346
vn -0.713999 0.165336 0.680346
vn -0.713999 0.165336 0.680346
vn -0.272802 0.938446 -0.211891
vn -0.288166 0.922254 -0.257699
vn -0.296827 0.911646 -0.284246
vn -0.888243 0.024071 0.458742
vn -0.876427 0.053897 0.478509
vn -0.875080 0.053370 0.481027
vn 0.919821 -0.013771 0.392096
vn 0.896861 -0.002865 0.442304
vn 0.894240 -0.002024 0.447583
vn 0.874928 0.001751 -0.484250
vn 0.881499 -0.037727 -0.470677
vn 0.881982 -0.037542 -0.469785
vn 0.870608 0.145285 0.470037
vn 0.917590 0.042220 0.395280
vn 0.927145 0.033072 0.373242
vn 0.414345 -0.006349 0.910098
vn 0.533966 0.004902 0.845492
vn 0.539966 0.001702 0.841685
vn 0.456152 0.009878 0.889847
vn 0.499840 0.015122 0.865986
vn 0.439293 0.007884 0.898309
vn -0.890837 -0.048498 0.451728
vn -0.895516 -0.030595 0.443977
vn -0.895981 -0.027398 0.443247
vn -0.349826 0.023382 0.936523
vn -0.320935 -0.029927 0.946628
vn -0.321479 -0.027950 0.946504
vn -0.587067 0.000542 -0.809538
vn -0.577878 0.036556 -0.815304
vn -0.587068 0.000911 -0.809537
vn -0.905475 0.003641 -0.424385
vn -0.954339 -0.008402 -0.298607
vn -0.902644 0.000675 -0.430387
vn -0.849043 -0.089434 -0.520698
vn -0.798845 -0.022740 -0.601107
vn -0.789113 -0.019033 -0.613953
vn 0.884204 0.048290 0.464597
vn 0.906112 0.002000 0.423033
vn 0.906113 0.000459 0.423036
vn -0.367527 0.056599 0.928289
vn -0.352182 0.023840 0.935628
vn -0.349826 0.023382 0.936523
vn 0.871157 0.049979 -0.488454
vn 0.874167 0.008881 -0.485545
vn 0.874928 0.001751 -0.484250
vn -0.895516 -0.030595 0.443977
vn -0.888243 0.024071 0.458742
vn -0.895981 -0.027398 0.443247
vn 0.419411 -0.043797 -0.906739
vn 0.406182 -0.001842 -0.913790
vn 0.421533 -0.044252 -0.905733
vn -0.081191 0.912235 -0.401541
vn -0.081191 0.912235 -0.401541
vn -0.081191 0.912235 -0.401541
vn 0.906112 0.002000 0.423033
vn 0.927145 0.033072 0.373242
vn 0.917590 0.042220 0.395280
vn -0.296156 -0.043682 0.954140
vn -0.321479 -0.027950 0.946504
vn -0.320935 -0.029927 0.946628
vn 0.403376 0.005440 -0.915018
vn 0.376973 0.049877 -0.924880
vn 0.380626 0.049125 -0.923423
vn 0.870204 0.487531 0.071121
vn 0.870204 0.487531 0.071121
vn 0.870204 0.487531 0.071121
vn -0.023522 0.999194 0.032541
vn -0.023522 0.999194 0.032541
vn -0.023522 0.999194 0.032541
vn 0.609350 -0.113829 0.784688
vn 0.708350 -0.018262 0.705625
vn 0.695569 -0.022601 0.718104
vn 0.617441 -0.138174 0.774387
vn 0.609350 -0.113829 0.784688
vn 0.622580 -0.137871 0.770315
vn 0.594052 0.159104 0.788536
vn 0.594052 0.159104 0.788536
vn 0.594052 0.159104 0.788536
vn -0.937170 -0.011855 -0.348671
vn -0.937170 -0.011855 -0.348671
vn -0.937170 -0.011855 -0.348671
vn -0.694572 0.027547 -0.718895
vn -0.694572 0.027547 -0.718895
vn -0.694572 0.027547 -0.718895
vn -0.818948 -0.193903 -0.540117
vn -0.815894 -0.214675 -0.536872
vn -0.846208 -0.111195 -0.521122
vn 0.446815 -0.008841 -0.894582
vn 0.446815 -0.008841 -0.894582
vn 0.446815 -0.008841 -0.894582
vn -0.883804 0.046302 -0.465561
vn -0.881202 0.047390 -0.470359
vn -0.905475 0.003641 -0.424385
vn -0.787150 -0.495704 0.366977
vn -0.787150 -0.495704 0.366977
vn -0.787150 -0.495704 0.366977
vn -0.330645 -0.001270 0.943754
vn -0.330645 -0.001270 0.943754
vn -0.330645 -0.001270 0.943754
vn -0.328468 0.638050 0.696421
vn -0.328468 0.638050 0.696421
vn -0.328468 0.638050 0.696421
vn 0.761269 0.281596 0.584100
vn 0.763599 0.294740 0.574496
vn 0.743415 0.233842 0.626620
vn -0.857807 0.149219 -0.491834
vn -0.857807 0.149219 -0.491834
vn -0.857807 0.149219 -0.491834
vn 0.510913 -0.859624 0.003824
vn 0.510913 -0.859624 0.003824
vn 0.510913 -0.859624 0.003824
vn 0.019286 -0.882756 -0.469436
vn 0.024292 -0.883978 -0.466897
vn -0.004558 -0.876539 -0.481310
vn -0.768575 0.055800 0.637322
vn -0.768575 0.055800 0.637322
vn -0.768575 0.055800 0.637322
vn -0.869331 0.479748 -0.118762
vn -0.869331 0.479748 -0.118762
vn -0.869331 0.479748 -0.118762
vn 0.471797 -0.207324 0.856986
vn 0.617441 -0.138174 0.774387
vn 0.598636 -0.137397 0.789150
vn 0.887672 -0.167376 0.428979
vn 0.901604 -0.171090 0.397290
vn 0.898848 -0.170348 0.403800
vn -0.740845 0.189848 -0.644288
vn -0.733601 0.214958 -0.644688
vn -0.737893 0.207350 -0.642277
vn 0.564461 0.568845 0.598163
vn 0.564461 0.568845 0.598163
vn 0.564461 0.568845 0.598163
vn -0.449345 0.747909 -0.488591
vn -0.449345 0.747909 -0.488591
vn -0.449345 0.747909 -0.488591
vn -0.418297 0.064632 -0.906008
vn -0.418297 0.064632 -0.906008
vn -0.418297 0.064632 -0.906008
vn 0.152447 -0.760375 0.631340
vn 0.179931 -0.751095 0.635202
vn 0.043042 -0.790550 0.610883
vn 0.126381 0.732719 -0.668693
vn 0.113027 0.725600 -0.678770
vn 0.171590 0.755165 -0.632679
vn 0.335407 0.916174 0.219380
vn 0.335407 0.916174 0.219380
vn 0.335407 0.916174 0.219380
vn -0.908748 -0.025939 -0.416538
vn -0.902723 -0.007792 -0.430152
vn -0.926247 -0.090964 -0.365777
vn 0.021178 0.797565 -0.602861
vn 0.021178 0.797565 -0.602861
vn 0.021178 0.797565 -0.602861
vn 0.549489 0.823279 -0.142387
vn 0.549489 0.823279 -0.142387
vn 0.549489 0.823279 -0.142387
vn 0.978372 -0.197535 -0.061391
vn 0.978372 -0.197535 -0.061391
vn 0.978372 -0.197535 -0.061391
vn -0.605880 0.049995 -0.793984
vn -0.596542 0.041878 -0.801488
vn -0.587067 0.000542 -0.809538
vn -0.529335 -0.835143 0.149470
vn -0.570450 -0.818711 0.065570
vn -0.562191 -0.822797 0.083346
vn 0.571418 0.047698 0.819272
vn 0.539966 0.001702 0.841685
vn 0.533966 0.004902 0.845492
vn -0.737305 0.180491 -0.651003
vn -0.740845 0.189848 -0.644288
vn -0.742192 0.186218 -0.643796
vn -0.787206 0.558123 0.262309
vn -0.787206 0.558123 0.262309
vn -0.787206 0.558123 0.262309
vn -0.676901 -0.057347 -0.733837
vn -0.676901 -0.057347 -0.733837
vn -0.676901 -0.057347 -0.733837
vn -0.640881 0.154810 -0.751868
vn -0.596542 0.041878 -0.801488
vn -0.605880 0.049995 -0.793984
vn 0.560347 0.718389 -0.412225
vn 0.560347 0.718389 -0.412225
vn 0.560347 0.718389 -0.412225
vn -0.272802 0.938446 -0.211891
vn -0.260421 0.949309 -0.176052
vn -0.288166 0.922254 -0.257699
vn -0.888243 0.024071 0.458742
vn -0.888773 0.024462 0.457695
vn -0.876427 0.053897 0.478509
vn 0.919821 -0.013771 0.392096
vn 0.859417 -0.042976 0.509467
vn 0.896861 -0.002865 0.442304
vn 0.874928 0.001751 -0.484250
vn 0.874167 0.008881 -0.485545
vn 0.881499 -0.037727 -0.470677
vn 0.870608 0.145285 0.470037
vn 0.844996 0.165818 0.508416
vn 0.917590 0.042220 0.395280
vn 0.414345 -0.006349 0.910098
vn 0.403516 -0.003843 0.914965
vn 0.533966 0.004902 0.845492
vn 0.456152 0.009878 0.889847
vn 0.503428 0.015558 0.863897
vn 0.499840 0.015122 0.865986
vn -0.890837 -0.048498 0.451728
vn -0.890280 -0.048714 0.452800
vn -0.895516 -0.030595 0.443977
vn -0.349826 0.023382 0.936523
vn -0.352182 0.023840 0.935628
vn -0.320935 -0.029927 0.946628
vn -0.587067 0.000542 -0.809538
vn -0.576608 0.036229 -0.816217
vn -0.577878 0.036556 -0.815304
vn -0.905475 0.003641 -0.424385
vn -0.957684 -0.006093 -0.287756
vn -0.954339 -0.008402 -0.298607
vn -0.849043 -0.089434 -0.520698
vn -0.846208 -0.111195 -0.521122
vn -0.798845 -0.022740 -0.601107
vn 0.884204 0.048290 0.464597
vn 0.880985 0.049709 0.470526
vn 0.906112 0.002000 0.423033
vn -0.367527 0.056599 0.928289
vn -0.369504 0.056990 0.927480
vn -0.352182 0.023840 0.935628
vn 0.871157 0.049979 -0.488454
vn 0.871247 0.050014 -0.488291
vn 0.874167 0.008881 -0.485545
vn -0.895516 -0.030595 0.443977
vn -0.888773 0.024462 0.457695
vn -0.888243 0.024071 0.458742
vn 0.419411 -0.043797 -0.906739
vn 0.403376 0.005440 -0.915018
vn 0.406182 -0.001842 -0.913790
vn 0.977272 0.010440 -0.211732
vn 0.977272 0.010440 -0.211732
vn 0.977272 0.010440 -0.211732
s off
g EA04_Env_Plants_Cactus_01b_LOD1
usemtl EA04_Env_Plants_Cactus_01b_LOD2SG1
f 9/30/1 10/32/2 23/29/3
f 62/28/4 30/33/5 65/31/6
f 29/34/7 60/35/8 25/36/9
f 63/37/10 1/58/11 66/9/12
f 33/10/13 38/11/14 36/12/15
f 34/13/16 23/29/17 48/14/18
f 19/57/19 8/18/20 13/15/21
f 25/36/22 22/16/23 61/17/24
f 39/59/25 61/17/26 38/11/27
f 32/60/28 2/61/29 9/30/30
f 41/62/31 32/60/32 26/63/33
f 18/64/34 69/65/35 64/66/36
f 46/45/37 42/46/38 45/47/39
f 36/12/40 61/17/41 14/48/42
f 50/49/43 31/50/44 51/51/45
f 52/52/46 31/50/47 27/53/48
f 55/54/49 48/14/50 49/44/51
f 54/41/52 55/54/53 56/42/54
f 53/43/55 34/13/56 54/41/57
f 21/69/58 6/23/59 16/55/60
f 33/10/61 47/6/62 44/26/63
f 45/47/64 38/11/65 44/26/66
f 55/54/67 50/49/68 56/42/69
f 19/57/70 6/23/71 8/18/72
f 37/8/73 32/60/74 40/27/75
f 49/44/76 11/24/77 24/3/78
f 48/14/79 23/29/80 11/24/81
f 45/47/82 42/46/83 39/59/84
f 27/53/85 9/30/86 34/13/87
f 2/61/88 19/57/89 10/32/90
f 24/3/91 50/49/92 49/44/93
f 27/53/94 34/13/95 52/52/96
f 57/38/97 34/13/98 53/43/99
f 39/59/100 29/34/101 25/36/102
f 43/20/103 35/2/104 37/8/105
f 36/12/106 21/69/107 35/2/108
f 10/32/109 4/19/110 11/24/111
f 46/45/112 40/27/113 41/62/114
f 47/6/115 45/47/116 44/26/117
f 4/19/118 19/57/119 13/15/120
f 50/49/121 57/38/122 56/42/123
f 28/7/124 66/9/125 64/66/126
f 56/42/127 57/38/128 54/41/129
f 51/51/130 52/52/131 57/38/132
f 41/62/133 29/34/134 42/46/135
f 15/39/136 68/1/137 7/68/138
f 22/16/139 11/24/140 61/17/141
f 9/30/142 28/7/143 20/67/144
f 47/6/145 46/45/146 45/47/147
f 37/8/148 21/69/149 16/55/150
f 67/25/151 5/40/152 17/4/153
f 61/17/154 4/19/155 13/15/156
f 62/28/157 31/50/158 24/3/159
f 11/24/160 30/33/161 24/3/162
f 30/33/163 68/1/164 65/31/165
f 61/17/166 8/18/167 14/48/168
f 29/34/169 58/56/170 59/21/171
f 67/25/172 60/35/173 59/21/174
f 66/9/175 18/64/176 64/66/177
f 69/65/178 28/7/179 64/66/180
f 26/63/181 20/67/182 58/56/183
f 15/39/184 62/28/185 65/31/186
f 17/4/187 68/1/188 67/25/189
f 3/5/190 63/37/191 62/28/192
f 58/56/193 67/25/194 59/21/195
f 31/50/196 66/9/197 27/53/198
f 33/10/199 43/20/200 47/6/201
f 62/28/202 24/3/203 30/33/204
f 29/34/205 59/21/206 60/35/207
f 63/37/208 12/22/209 1/58/210
f 33/10/211 44/26/212 38/11/213
f 34/13/214 9/30/215 23/29/216
f 25/36/217 60/35/218 22/16/219
f 39/59/220 25/36/221 61/17/222
f 30/33/223 22/16/224 60/35/225
f 32/60/226 16/55/227 6/23/228
f 32/60/229 6/23/230 2/61/231
f 41/62/232 40/27/233 32/60/234
f 10/32/235 9/30/236 2/61/237
f 18/64/238 5/40/239 69/65/240
f 46/45/241 41/62/242 42/46/243
f 21/69/244 14/48/245 8/18/246
f 55/54/247 54/41/248 48/14/249
f 36/12/250 38/11/251 61/17/252
f 58/56/253 20/67/254 28/7/255
f 50/49/256 24/3/257 31/50/258
f 52/52/259 51/51/260 31/50/261
f 21/69/262 8/18/263 6/23/264
f 43/20/265 46/45/266 47/6/267
f 45/47/268 39/59/269 38/11/270
f 55/54/271 49/44/272 50/49/273
f 37/8/274 16/55/275 32/60/276
f 49/44/277 48/14/278 11/24/279
f 2/61/280 6/23/281 19/57/282
f 57/38/283 52/52/284 34/13/285
f 39/59/286 42/46/287 29/34/288
f 43/20/289 33/10/290 35/2/291
f 36/12/292 14/48/293 21/69/294
f 46/45/295 43/20/296 40/27/297
f 54/41/298 57/38/299 53/43/300
f 4/19/301 10/32/302 19/57/303
f 50/49/304 51/51/305 57/38/306
f 28/7/307 27/53/308 66/9/309
f 41/62/310 26/63/311 29/34/312
f 15/39/313 65/31/314 68/1/315
f 43/20/316 37/8/317 40/27/318
f 54/41/319 34/13/320 48/14/321
f 20/67/322 32/60/323 9/30/324
f 9/30/325 27/53/326 28/7/327
f 33/10/328 36/12/329 35/2/330
f 37/8/331 35/2/332 21/69/333
f 67/25/334 69/65/335 5/40/336
f 61/17/337 11/24/338 4/19/339
f 62/28/340 63/37/341 31/50/342
f 11/24/343 22/16/344 30/33/345
f 30/33/346 60/35/347 68/1/348
f 61/17/349 13/15/350 8/18/351
f 29/34/352 26/63/353 58/56/354
f 67/25/355 68/1/356 60/35/357
f 66/9/358 1/58/359 18/64/360
f 69/65/361 58/56/362 28/7/363
f 26/63/364 32/60/365 20/67/366
f 15/39/367 3/5/368 62/28/369
f 17/4/370 7/68/371 68/1/372
f 3/5/373 12/22/374 63/37/375
f 58/56/376 69/65/377 67/25/378
f 31/50/379 63/37/380 66/9/381
f 11/24/382 23/29/383 10/32/384
