# This file uses centimeters as units for non-parametric coordinates.

mtllib cow-skull.mtl
g default
v -0.569165 0.539018 -5.759206
v -0.961401 1.419732 -6.324325
v -1.886474 1.036884 -5.234763
v -0.250038 1.436262 -5.467739
v -0.419124 0.166158 -6.056011
v 0.648624 0.788889 -7.575472
v -3.038618 1.247188 -5.269708
v 0.197235 0.688211 -6.427638
v -0.311930 1.472342 -6.297713
v -0.021916 1.278921 -5.788342
v -0.218071 1.017065 -6.146228
v -0.359588 0.893743 -6.435625
v -1.462848 0.903084 -6.456374
v -1.650382 0.825518 -5.998146
v -1.551710 0.990919 -5.645523
v -0.452038 1.177928 -5.660570
v -0.408120 0.906346 -5.418558
v -0.215839 1.141398 -5.209852
v -1.059202 1.471526 -5.185659
v -0.479255 1.434523 -5.290714
v -1.244915 1.032656 -5.146551
v -0.939603 1.298124 -5.417785
v -0.559867 1.236664 -5.118838
v -1.088827 1.074464 -4.910302
v -1.114436 0.548370 -4.909182
v -0.558497 0.408869 -4.304758
v -0.980621 0.440991 -5.067707
v -0.131044 0.496038 -4.498274
v 0.127801 0.363546 -4.969608
v -0.686858 0.785756 -6.819918
v -0.046872 0.398028 -6.142353
v 0.112583 0.409716 -5.726118
v -0.131912 0.334269 -5.583296
v -0.005830 0.092591 -5.724754
v -0.838957 0.810586 -6.052316
v -1.559873 0.551929 -5.213687
v -1.388520 0.270729 -5.519877
v -1.032661 0.561194 -5.571810
v -1.301152 0.272487 -4.934221
v -0.474783 1.312180 -6.640493
v -0.075489 0.878406 -6.656942
v -1.638763 1.382919 -5.984898
v -1.913202 0.811461 -5.449292
v -1.393879 1.095817 -5.518031
v -1.450125 1.443167 -5.557307
v -1.450781 1.614014 -5.785017
v -2.117669 1.145836 -5.332415
v -0.169829 0.541390 -4.019643
v -0.049435 0.111948 -3.895986
v 0.343218 -0.008835 -3.826524
v 0.299160 0.219400 -4.547418
v 0.407355 0.340088 -4.193315
v 0.131488 0.772552 -5.003680
v 0.083118 0.742146 -4.184104
v 0.253054 0.131957 -3.781938
v 0.112845 0.101555 -3.652921
v 0.462817 0.748032 -7.125740
v 0.662430 0.785568 -7.067828
v 0.807520 0.650641 -7.177877
v 0.567942 0.491347 -7.112921
v -2.658408 1.165545 -5.142989
v -3.006406 1.472671 -5.610360
v -3.021916 1.155487 -5.420825
v 0.580444 1.055934 -7.600111
v 0.108920 0.544136 -6.578889
v 0.104944 0.975422 -6.529659
v -1.976725 1.055459 -5.582982
v -2.598772 1.088565 -5.384145
v -2.623888 0.916883 -5.112450
v 0.084975 0.853795 -5.755765
vt 0.642999 0.931718
vt 0.644665 0.929578
vt 0.643357 0.932142
vt 0.644342 0.929656
vt 0.642958 0.929469
vt 0.644739 0.930490
vt 0.078779 0.893465
vt 0.640556 0.929130
vt 0.080674 0.891913
vt 0.162669 0.899298
vt 0.644082 0.932024
vt 0.646725 0.931942
vt 0.646015 0.932665
vt 0.644805 0.931485
vt 0.645955 0.932157
vt 0.643682 0.932238
vt 0.644662 0.929041
vt 0.079638 0.893624
vt 0.079926 0.892475
vt 0.080037 0.893410
vt 0.079312 0.893528
vt 0.643508 0.931456
vt 0.647941 0.929412
vt 0.644798 0.933527
vt 0.079925 0.893781
vt 0.162671 0.897991
vt 0.646765 0.930716
vt 0.644012 0.932389
vt 0.640397 0.928506
vt 0.641244 0.930268
vt 0.080151 0.893798
vt 0.648838 0.929846
vt 0.641894 0.929986
vt 0.643976 0.934080
vt 0.080472 0.893072
vt 0.643034 0.930303
vt 0.646478 0.930744
vt 0.161984 0.898831
vt 0.644342 0.932883
vt 0.646313 0.932083
vt 0.645189 0.933235
vt 0.645279 0.932102
vt 0.644483 0.932347
vt 0.644284 0.933177
vt 0.643445 0.932864
vt 0.163533 0.897395
vt 0.643500 0.931388
vt 0.642821 0.931026
vt 0.643556 0.932759
vt 0.641253 0.929185
vt 0.079401 0.894250
vt 0.641457 0.930213
vt 0.642005 0.929011
vt 0.644195 0.932412
vt 0.643635 0.934283
vt 0.643280 0.933213
vt 0.643893 0.933541
vt 0.640786 0.930125
vt 0.642824 0.932079
vt 0.643179 0.930680
vt 0.643349 0.933755
vt 0.079239 0.893314
vt 0.647823 0.929938
vt 0.646248 0.930068
vt 0.647693 0.929826
vt 0.648829 0.930493
vt 0.644354 0.934665
vt 0.640304 0.928876
vt 0.647794 0.929313
vt 0.645401 0.931302
vt 0.080761 0.892871
vt 0.644718 0.930527
vt 0.645613 0.931135
vt 0.647133 0.931107
vt 0.646266 0.931017
vt 0.645639 0.929676
vt 0.643776 0.933202
vt 0.640043 0.928943
vt 0.162057 0.899044
vt 0.644199 0.930718
vt 0.644317 0.930975
vt 0.642878 0.930639
vt 0.163217 0.898589
vt 0.079455 0.892774
vt 0.646589 0.929857
vt 0.645484 0.929548
vn -0.057706 0.914707 -0.399976
vn -0.057706 0.914707 -0.399976
vn -0.057706 0.914707 -0.399976
vn 0.024545 0.998833 0.041590
vn 0.024545 0.998833 0.041590
vn 0.024545 0.998833 0.041590
vn 0.562071 0.827067 -0.005961
vn 0.562071 0.827067 -0.005961
vn 0.562071 0.827067 -0.005961
vn 0.871606 0.016675 -0.489923
vn 0.871606 0.016675 -0.489923
vn 0.871606 0.016675 -0.489923
vn 0.747400 0.081395 -0.659370
vn 0.747400 0.081395 -0.659370
vn 0.747400 0.081395 -0.659370
vn 0.833125 0.227250 -0.504241
vn 0.833125 0.227250 -0.504241
vn 0.833125 0.227250 -0.504241
vn 0.770970 -0.096004 -0.629593
vn 0.770970 -0.096004 -0.629593
vn 0.770970 -0.096004 -0.629593
vn 0.242200 0.961912 -0.126744
vn 0.242200 0.961912 -0.126744
vn 0.242200 0.961912 -0.126744
vn -0.393481 0.566885 -0.723750
vn -0.393481 0.566885 -0.723750
vn -0.393481 0.566885 -0.723750
vn -0.926789 0.028220 -0.374520
vn -0.926789 0.028220 -0.374520
vn -0.926789 0.028220 -0.374520
vn -0.964583 0.013846 0.263417
vn -0.964583 0.013846 0.263417
vn -0.964583 0.013846 0.263417
vn -0.532810 0.676158 0.508845
vn -0.532810 0.676158 0.508845
vn -0.532810 0.676158 0.508845
vn 0.485270 0.624142 0.612339
vn 0.485270 0.624142 0.612339
vn 0.485270 0.624142 0.612339
vn 0.482552 0.607657 0.630791
vn 0.482552 0.607657 0.630791
vn 0.482552 0.607657 0.630791
vn -0.434532 -0.814447 0.384523
vn -0.434532 -0.814447 0.384523
vn -0.434532 -0.814447 0.384523
vn -0.685014 0.034894 0.727694
vn -0.685014 0.034894 0.727694
vn -0.685014 0.034894 0.727694
vn -0.042083 0.837563 0.544717
vn -0.042083 0.837563 0.544717
vn -0.042083 0.837563 0.544717
vn -0.447448 -0.869068 0.210974
vn -0.447448 -0.869068 0.210974
vn -0.447448 -0.869068 0.210974
vn -0.490769 -0.835384 0.247547
vn -0.490769 -0.835384 0.247547
vn -0.490769 -0.835384 0.247547
vn 0.920915 -0.040595 -0.387644
vn 0.920915 -0.040595 -0.387644
vn 0.920915 -0.040595 -0.387644
vn 0.279596 -0.695386 -0.662015
vn 0.279596 -0.695386 -0.662015
vn 0.279596 -0.695386 -0.662015
vn -0.556352 -0.616407 0.557239
vn -0.556352 -0.616407 0.557239
vn -0.556352 -0.616407 0.557239
vn -0.525301 -0.649235 0.550048
vn -0.525301 -0.649235 0.550048
vn -0.525301 -0.649235 0.550048
vn 0.884083 -0.331528 -0.329374
vn 0.884083 -0.331528 -0.329374
vn 0.884083 -0.331528 -0.329374
vn -0.792292 0.463705 0.396550
vn -0.792292 0.463705 0.396550
vn -0.792292 0.463705 0.396550
vn -0.721019 0.492691 0.487224
vn -0.721019 0.492691 0.487224
vn -0.721019 0.492691 0.487224
vn -0.924542 -0.258366 -0.280122
vn -0.924542 -0.258366 -0.280122
vn -0.924542 -0.258366 -0.280122
vn -0.133903 -0.966999 -0.216757
vn -0.133903 -0.966999 -0.216757
vn -0.133903 -0.966999 -0.216757
vn 0.529210 -0.424829 0.734478
vn 0.529210 -0.424829 0.734478
vn 0.529210 -0.424829 0.734478
vn 0.495689 0.672415 -0.549682
vn 0.495689 0.672415 -0.549682
vn 0.495689 0.672415 -0.549682
vn -0.306902 -0.812173 0.496172
vn -0.306902 -0.812173 0.496172
vn -0.306902 -0.812173 0.496172
vn -0.553843 -0.484131 -0.677403
vn -0.553843 -0.484131 -0.677403
vn -0.553843 -0.484131 -0.677403
vn -0.397946 -0.518341 -0.756942
vn -0.397946 -0.518341 -0.756942
vn -0.397946 -0.518341 -0.756942
vn -0.075902 -0.662229 -0.745447
vn -0.075902 -0.662229 -0.745447
vn -0.075902 -0.662229 -0.745447
vn 0.488412 -0.865925 0.107830
vn 0.488412 -0.865925 0.107830
vn 0.488412 -0.865925 0.107830
vn -0.024666 0.637700 0.769890
vn -0.024666 0.637700 0.769890
vn -0.024666 0.637700 0.769890
vn -0.830849 -0.074113 0.551540
vn -0.830849 -0.074113 0.551540
vn -0.830849 -0.074113 0.551540
vn 0.257953 -0.798385 -0.544098
vn 0.257953 -0.798385 -0.544098
vn 0.257953 -0.798385 -0.544098
vn 0.108563 -0.987450 -0.114700
vn 0.108563 -0.987450 -0.114700
vn 0.108563 -0.987450 -0.114700
vn -0.545159 -0.808247 -0.222573
vn -0.545159 -0.808247 -0.222573
vn -0.545159 -0.808247 -0.222573
vn -0.811111 -0.566063 0.147212
vn -0.811111 -0.566063 0.147212
vn -0.811111 -0.566063 0.147212
vn 0.998933 0.025115 -0.038755
vn 0.998933 0.025115 -0.038755
vn 0.998933 0.025115 -0.038755
vn 0.998933 0.025115 -0.038755
vn 0.924416 -0.343697 -0.165311
vn 0.924416 -0.343697 -0.165311
vn 0.924416 -0.343697 -0.165311
vn 0.777329 0.625291 0.069075
vn 0.777329 0.625291 0.069075
vn 0.777329 0.625291 0.069075
vn 0.670955 0.529189 0.519403
vn 0.670955 0.529189 0.519403
vn 0.670955 0.529189 0.519403
vn -0.005894 0.638135 0.769901
vn -0.005894 0.638135 0.769901
vn -0.005894 0.638135 0.769901
vn 0.485187 0.571375 0.661909
vn 0.485187 0.571375 0.661909
vn 0.485187 0.571375 0.661909
vn 0.745780 0.633283 0.206796
vn 0.745780 0.633283 0.206796
vn 0.745780 0.633283 0.206796
vn -0.300762 0.075013 0.950745
vn -0.300762 0.075013 0.950745
vn -0.300762 0.075013 0.950745
vn 0.700484 0.711627 -0.053936
vn 0.700484 0.711627 -0.053936
vn 0.700484 0.711627 -0.053936
vn -0.994671 -0.012519 -0.102340
vn -0.994671 -0.012519 -0.102340
vn -0.994671 -0.012519 -0.102340
vn -0.616130 -0.634352 -0.466884
vn -0.616130 -0.634352 -0.466884
vn -0.616130 -0.634352 -0.466884
vn -0.166738 0.883755 -0.437236
vn -0.166738 0.883755 -0.437236
vn -0.166738 0.883755 -0.437236
vn 0.569947 -0.654776 0.496415
vn 0.569947 -0.654776 0.496415
vn 0.569947 -0.654776 0.496415
vn 0.451167 -0.762821 0.463199
vn 0.451167 -0.762821 0.463199
vn 0.451167 -0.762821 0.463199
vn 0.199469 0.853980 0.480552
vn 0.199469 0.853980 0.480552
vn 0.199469 0.853980 0.480552
vn -0.077904 0.944004 -0.320604
vn -0.077904 0.944004 -0.320604
vn -0.077904 0.944004 -0.320604
vn -0.287837 -0.900704 -0.325396
vn -0.287837 -0.900704 -0.325396
vn -0.287837 -0.900704 -0.325396
vn 0.226333 -0.685445 0.692054
vn 0.226333 -0.685445 0.692054
vn 0.226333 -0.685445 0.692054
vn -0.829177 -0.539351 -0.146853
vn -0.829177 -0.539351 -0.146853
vn -0.829177 -0.539351 -0.146853
vn -0.250674 -0.814220 -0.523650
vn -0.250674 -0.814220 -0.523650
vn -0.250674 -0.814220 -0.523650
vn -0.303621 0.501712 -0.810000
vn -0.303621 0.501712 -0.810000
vn -0.303621 0.501712 -0.810000
vn 0.841686 -0.276953 -0.463532
vn 0.841686 -0.276953 -0.463532
vn 0.841686 -0.276953 -0.463532
vn 0.832585 -0.306783 -0.461180
vn 0.832585 -0.306783 -0.461180
vn 0.832585 -0.306783 -0.461180
vn -0.309523 0.760290 -0.571100
vn -0.309523 0.760290 -0.571100
vn -0.309523 0.760290 -0.571100
vn -0.286084 0.958007 0.019479
vn -0.286084 0.958007 0.019479
vn -0.286084 0.958007 0.019479
vn -0.419025 0.439593 -0.794466
vn -0.419025 0.439593 -0.794466
vn -0.419025 0.439593 -0.794466
vn -0.081687 0.996373 0.023846
vn -0.081687 0.996373 0.023846
vn -0.081687 0.996373 0.023846
vn 0.811147 0.160863 -0.562284
vn 0.811147 0.160863 -0.562284
vn 0.811147 0.160863 -0.562284
vn -0.325625 0.756005 -0.567825
vn -0.325625 0.756005 -0.567825
vn -0.325625 0.756005 -0.567825
vn -0.831106 0.387257 0.399117
vn -0.831106 0.387257 0.399117
vn -0.831106 0.387257 0.399117
vn -0.687601 -0.029309 0.725497
vn -0.687601 -0.029309 0.725497
vn -0.687601 -0.029309 0.725497
vn 0.093710 0.980646 0.171908
vn 0.093710 0.980646 0.171908
vn 0.093710 0.980646 0.171908
vn 0.252413 0.136867 0.957891
vn 0.252413 0.136867 0.957891
vn 0.252413 0.136867 0.957891
vn 0.179321 0.602515 0.777702
vn 0.179321 0.602515 0.777702
vn 0.179321 0.602515 0.777702
vn 0.759702 -0.268710 0.592155
vn 0.759702 -0.268710 0.592155
vn 0.759702 -0.268710 0.592155
vn -0.626883 0.399612 0.668826
vn -0.626883 0.399612 0.668826
vn -0.626883 0.399612 0.668826
vn -0.053570 -0.983756 -0.171333
vn -0.053570 -0.983756 -0.171333
vn -0.053570 -0.983756 -0.171333
vn -0.069380 -0.997584 -0.003614
vn -0.069380 -0.997584 -0.003614
vn -0.069380 -0.997584 -0.003614
vn 0.363792 -0.825355 0.431792
vn 0.363792 -0.825355 0.431792
vn 0.363792 -0.825355 0.431792
vn -0.544930 -0.836016 -0.064259
vn -0.544930 -0.836016 -0.064259
vn -0.544930 -0.836016 -0.064259
vn 0.259921 -0.963504 -0.064032
vn 0.259921 -0.963504 -0.064032
vn 0.259921 -0.963504 -0.064032
vn 0.719116 0.694220 0.030518
vn 0.719116 0.694220 0.030518
vn 0.719116 0.694220 0.030518
vn 0.932960 0.034076 -0.358364
vn 0.932960 0.034076 -0.358364
vn 0.932960 0.034076 -0.358364
vn 0.539231 -0.197825 0.818594
vn 0.539231 -0.197825 0.818594
vn 0.539231 -0.197825 0.818594
vn -0.809480 -0.528824 0.255123
vn -0.809480 -0.528824 0.255123
vn -0.809480 -0.528824 0.255123
vn 0.330576 -0.745990 -0.578117
vn 0.330576 -0.745990 -0.578117
vn 0.330576 -0.745990 -0.578117
vn -0.930733 -0.152945 0.332180
vn -0.930733 -0.152945 0.332180
vn -0.930733 -0.152945 0.332180
vn 0.621792 -0.777945 -0.090423
vn 0.621792 -0.777945 -0.090423
vn 0.621792 -0.777945 -0.090423
vn 0.366264 -0.895896 -0.251437
vn 0.366264 -0.895896 -0.251437
vn 0.366264 -0.895896 -0.251437
vn -0.146289 0.009228 0.989199
vn -0.146289 0.009228 0.989199
vn -0.146289 0.009228 0.989199
vn -0.779656 0.449990 0.435483
vn -0.779656 0.449990 0.435483
vn -0.779656 0.449990 0.435483
vn -0.646925 0.148970 0.747861
vn -0.646925 0.148970 0.747861
vn -0.646925 0.148970 0.747861
vn -0.785059 -0.607895 0.118938
vn -0.785059 -0.607895 0.118938
vn -0.785059 -0.607895 0.118938
vn -0.242368 -0.627879 0.739612
vn -0.242368 -0.627879 0.739612
vn -0.242368 -0.627879 0.739612
vn 0.384364 0.385619 -0.838786
vn 0.384364 0.385619 -0.838786
vn 0.384364 0.385619 -0.838786
vn 0.436883 -0.646758 0.625169
vn 0.436883 -0.646758 0.625169
vn 0.436883 -0.646758 0.625169
vn 0.475094 0.174454 0.862468
vn 0.475094 0.174454 0.862468
vn 0.475094 0.174454 0.862468
vn -0.152112 0.790373 0.593441
vn -0.152112 0.790373 0.593441
vn -0.152112 0.790373 0.593441
vn -0.603590 0.059719 0.795055
vn -0.603590 0.059719 0.795055
vn -0.603590 0.059719 0.795055
vn -0.067525 -0.845342 -0.529941
vn -0.067525 -0.845342 -0.529941
vn -0.067525 -0.845342 -0.529941
vn 0.951975 0.037966 -0.303813
vn 0.951975 0.037966 -0.303813
vn 0.951975 0.037966 -0.303813
vn 0.799307 0.359366 0.481626
vn 0.799307 0.359366 0.481626
vn 0.799307 0.359366 0.481626
vn -0.292673 0.833584 0.468487
vn -0.292673 0.833584 0.468487
vn -0.292673 0.833584 0.468487
vn 0.930854 0.210079 -0.298961
vn 0.930854 0.210079 -0.298961
vn 0.930854 0.210079 -0.298961
vn 0.410702 -0.797739 -0.441516
vn 0.410702 -0.797739 -0.441516
vn 0.410702 -0.797739 -0.441516
vn -0.004749 0.834073 0.551634
vn -0.004749 0.834073 0.551634
vn -0.004749 0.834073 0.551634
vn -0.006664 -0.512702 -0.858541
vn -0.006664 -0.512702 -0.858541
vn -0.006664 -0.512702 -0.858541
vn -0.661453 -0.671362 0.334294
vn -0.661453 -0.671362 0.334294
vn -0.661453 -0.671362 0.334294
vn -0.060620 0.919945 -0.387331
vn -0.060620 0.919945 -0.387331
vn -0.060620 0.919945 -0.387331
vn 0.139842 0.139804 0.980255
vn 0.139842 0.139804 0.980255
vn 0.139842 0.139804 0.980255
vn -0.070017 0.925154 -0.373079
vn -0.070017 0.925154 -0.373079
vn -0.070017 0.925154 -0.373079
vn -0.285520 -0.516615 -0.807210
vn -0.285520 -0.516615 -0.807210
vn -0.285520 -0.516615 -0.807210
vn 0.161535 0.586278 -0.793842
vn 0.161535 0.586278 -0.793842
vn 0.161535 0.586278 -0.793842
vn 0.347495 -0.720057 0.600637
vn 0.347495 -0.720057 0.600637
vn 0.347495 -0.720057 0.600637
vn 0.727905 0.377850 0.572175
vn 0.727905 0.377850 0.572175
vn 0.727905 0.377850 0.572175
vn 0.727905 0.377850 0.572175
vn 0.813053 0.221485 -0.538414
vn 0.813053 0.221485 -0.538414
vn 0.813053 0.221485 -0.538414
vn -0.743401 0.578692 -0.335367
vn -0.743401 0.578692 -0.335367
vn -0.743401 0.578692 -0.335367
vn -0.743401 0.578692 -0.335367
vn -0.264993 0.821171 0.505427
vn -0.264993 0.821171 0.505427
vn -0.264993 0.821171 0.505427
vn -0.292055 0.747641 0.596437
vn -0.292055 0.747641 0.596437
vn -0.292055 0.747641 0.596437
vn -0.292055 0.747641 0.596437
vn 0.720898 0.690553 0.058677
vn 0.720898 0.690553 0.058677
vn 0.720898 0.690553 0.058677
vn 0.720898 0.690553 0.058677
vn -0.866898 -0.314523 -0.386735
vn -0.866898 -0.314523 -0.386735
vn -0.866898 -0.314523 -0.386735
vn -0.866898 -0.314523 -0.386735
vn -0.649482 -0.223459 -0.726801
vn -0.649482 -0.223459 -0.726801
vn -0.649482 -0.223459 -0.726801
vn -0.649482 -0.223459 -0.726801
vn 0.715208 0.391167 0.579195
vn 0.715208 0.391167 0.579195
vn 0.715208 0.391167 0.579195
vn 0.715208 0.391167 0.579195
vn -0.101298 -0.992337 -0.070756
vn -0.101298 -0.992337 -0.070756
vn -0.101298 -0.992337 -0.070756
vn -0.101298 -0.992337 -0.070756
vn 0.120102 -0.756406 -0.642981
vn 0.120102 -0.756406 -0.642981
vn 0.120102 -0.756406 -0.642981
vn 0.120102 -0.756406 -0.642981
s off
g EA04_Prop_Skull_01a_LOD1
usemtl EA04_Prop_Skull_01a_LOD2SG1
f 2/13/1 9/15/2 40/12/3
f 4/11/4 9/15/5 20/16/6
f 4/11/7 10/14/8 9/15/9
f 10/14/10 11/73/11 9/15/12
f 30/74/13 12/75/14 31/76/15
f 31/76/16 12/75/17 11/73/18
f 30/74/19 40/12/20 12/75/21
f 2/13/22 46/24/23 20/16/24
f 13/40/25 42/41/26 2/13/27
f 14/42/28 42/41/29 13/40/30
f 14/42/31 15/43/32 42/41/33
f 46/24/34 45/44/35 19/45/36
f 16/83/37 17/26/38 70/46/39
f 4/11/40 20/16/41 18/47/42
f 22/25/43 23/62/44 19/51/45
f 25/48/46 48/58/47 24/59/48
f 48/58/49 23/1/50 24/59/51
f 27/60/52 26/52/53 25/48/54
f 33/4/55 29/5/56 1/6/57
f 29/5/58 53/36/59 51/53/60
f 30/74/61 31/76/62 5/86/63
f 33/4/64 5/86/65 34/17/66
f 1/6/67 5/86/68 33/4/69
f 31/76/70 32/2/71 34/17/72
f 44/54/73 36/22/74 21/3/75
f 44/54/76 15/43/77 36/22/78
f 37/80/79 36/22/80 15/43/81
f 27/60/82 38/81/83 1/6/84
f 25/48/85 39/82/86 27/60/87
f 9/15/88 66/37/89 40/12/90
f 11/73/91 12/75/92 8/64/93
f 40/12/94 41/27/95 12/75/96
f 43/28/97 67/39/98 42/41/99
f 15/43/100 43/28/101 42/41/102
f 44/54/103 43/28/104 15/43/105
f 45/44/106 47/77/107 3/49/108
f 49/8/109 56/78/110 48/58/111
f 28/33/112 55/68/113 49/8/114
f 55/68/115 56/78/116 49/8/117
f 51/53/118 50/29/119 28/33/120
f 28/33/121 50/29/122 55/68/123
f 32/2/124 70/72/125 53/36/126 29/5/127
f 51/53/128 52/50/129 50/29/130
f 53/36/131 54/30/132 52/50/133
f 52/50/134 54/30/135 55/68/136
f 48/58/137 56/78/138 54/30/139
f 54/30/140 56/78/141 55/68/142
f 58/65/143 59/23/144 64/66/145
f 61/61/146 7/55/147 69/56/148
f 68/57/149 62/67/150 61/61/151
f 63/34/152 7/55/153 62/67/154
f 12/75/155 60/69/156 65/85/157
f 66/37/158 57/63/159 41/27/160
f 8/64/161 60/69/162 59/23/163
f 8/64/164 65/85/165 60/69/166
f 3/49/167 47/77/168 61/61/169
f 47/77/170 68/57/171 61/61/172
f 69/56/173 63/34/174 43/28/175
f 3/49/176 69/56/177 43/28/178
f 5/86/179 35/70/180 30/74/181
f 35/70/182 1/6/183 38/81/184
f 13/40/185 2/13/186 30/74/187
f 18/84/188 17/19/189 16/35/190
f 18/84/191 16/35/192 4/20/193
f 18/84/194 70/9/195 17/19/196
f 23/62/197 21/21/198 24/7/199
f 30/74/200 2/13/201 40/12/202
f 2/13/203 20/16/204 9/15/205
f 10/14/206 70/72/207 11/73/208
f 2/13/209 42/41/210 46/24/211
f 21/21/212 19/51/213 44/31/214
f 19/45/215 45/44/216 44/54/217
f 19/45/218 20/16/219 46/24/220
f 70/9/221 10/71/222 16/35/223
f 20/18/224 19/51/225 23/62/226
f 21/21/227 22/25/228 19/51/229
f 25/48/230 26/52/231 48/58/232
f 27/60/233 1/6/234 29/5/235
f 27/60/236 29/5/237 26/52/238
f 26/52/239 29/5/240 28/33/241
f 29/5/242 51/53/243 28/33/244
f 33/4/245 32/2/246 29/5/247
f 70/72/248 18/47/249 53/36/250
f 70/72/251 32/2/252 31/76/253
f 33/4/254 34/17/255 32/2/256
f 35/70/257 5/86/258 1/6/259
f 34/17/260 5/86/261 31/76/262
f 15/43/263 14/42/264 37/80/265
f 38/81/266 39/82/267 37/80/268
f 27/60/269 39/82/270 38/81/271
f 24/59/272 39/82/273 25/48/274
f 24/59/275 21/3/276 36/22/277
f 39/82/278 24/59/279 36/22/280
f 39/82/281 36/22/282 37/80/283
f 8/64/284 12/75/285 65/85/286
f 40/12/287 66/37/288 41/27/289
f 43/28/290 44/54/291 3/49/292
f 44/54/293 45/44/294 3/49/295
f 45/44/296 46/24/297 47/77/298
f 48/58/299 26/52/300 49/8/301
f 26/52/302 28/33/303 49/8/304
f 51/53/305 53/36/306 52/50/307
f 50/29/308 52/50/309 55/68/310
f 57/63/311 58/65/312 64/66/313
f 59/23/314 6/32/315 64/66/316
f 60/69/317 6/32/318 59/23/319
f 61/61/320 62/67/321 7/55/322
f 68/57/323 63/34/324 62/67/325
f 63/34/326 69/56/327 7/55/328
f 66/37/329 58/65/330 57/63/331
f 3/49/332 61/61/333 69/56/334
f 47/77/335 67/39/336 68/57/337
f 67/39/338 43/28/339 68/57/340
f 68/57/341 43/28/342 63/34/343
f 4/20/344 16/35/345 10/71/346
f 11/73/347 8/64/348 66/37/349 9/15/350
f 31/76/351 11/73/352 70/72/353
f 46/24/354 42/41/355 67/39/356 47/77/357
f 23/38/358 22/10/359 21/79/360
f 23/1/361 48/58/362 54/30/363 20/16/364
f 18/47/365 20/16/366 54/30/367 53/36/368
f 57/63/369 64/66/370 6/32/371 60/69/372
f 41/27/373 57/63/374 60/69/375 12/75/376
f 8/64/377 59/23/378 58/65/379 66/37/380
f 13/40/381 30/74/382 35/70/383 14/42/384
f 38/81/385 37/80/386 14/42/387 35/70/388
