# This file uses centimeters as units for non-parametric coordinates.

mtllib Cactus1.mtl
g default
v -0.798849 0.396732 0.892026
v -0.077695 0.289083 0.914648
v 0.814402 0.407877 0.901034
v -0.986447 2.313143 0.877713
v -0.072831 2.320076 1.073035
v 1.007089 2.337922 0.873964
v -1.061566 2.301374 -0.586682
v -0.073866 2.311290 -1.070992
v 1.080506 2.333156 -0.578174
v -0.871122 0.520876 -0.607753
v -0.081514 0.196688 -0.618070
v 0.875157 0.516938 -0.604721
v -0.986290 4.843468 0.859671
v -0.031952 4.393820 1.067339
v 1.081125 4.482204 0.879013
v -0.028733 4.399217 -1.209872
v 1.173776 4.673149 -0.414306
v -1.078142 4.804168 -0.470114
v -1.156279 5.384343 0.897014
v -1.372565 5.682383 0.949640
v -0.064086 4.866612 1.262704
v -0.921020 5.648959 1.665137
v 1.313214 5.237799 0.889675
v 0.740001 5.775182 1.775727
v -0.130322 5.598532 1.741586
v 1.256180 5.397736 -0.221162
v -0.028174 5.232517 -1.014242
v 0.884310 5.827300 -1.560584
v -1.233311 5.333128 -0.374873
v -1.414621 5.644427 -0.319487
v -0.874234 5.626605 -1.508486
v -0.022946 5.611909 -1.620047
v -1.668066 8.362338 1.374228
v -1.254723 7.505817 1.956668
v -0.418099 8.430479 1.710705
v -1.376264 9.922595 1.615276
v -0.410985 7.651205 1.968932
v 0.979369 8.299634 1.359979
v -0.282449 9.910390 1.828422
v 0.977717 9.888788 1.605670
v 0.638728 7.342585 1.939104
v 1.273254 7.279862 -0.065315
v 1.239512 7.278092 1.152522
v -1.757720 8.399956 -0.084972
v -1.825875 7.601991 -0.131383
v -1.483631 9.946241 0.071939
v -0.374559 8.471489 -0.838444
v -1.101108 7.635816 -1.461246
v -0.272552 7.852476 -1.432310
v -0.285798 9.938558 -0.447603
v 1.060878 8.333550 -0.065675
v 0.739639 7.603377 -1.399063
v 1.076168 9.906552 0.093222
v -1.764920 7.598679 1.266004
v -0.090845 14.783603 1.568682
v -0.083284 14.884707 0.518214
v 0.562011 14.289378 1.633115
v -1.205441 5.785684 1.561543
v -0.933823 5.777062 2.033569
v -1.266412 5.889826 1.675610
v -0.163257 5.703243 2.380835
v 0.625856 5.806585 2.405180
v 0.607323 7.017924 2.431255
v 0.868516 7.000890 1.892925
v 0.783365 6.760940 2.410636
v -0.319014 7.306813 2.452306
v -1.415981 7.235045 1.926332
v -1.040313 7.194914 2.453863
v -1.157205 6.978893 2.444688
v -1.162630 5.726208 -1.328292
v -0.735655 6.011260 -2.507297
v -1.295869 5.951906 -1.444328
v -0.025352 5.835101 -2.378945
v 0.769609 5.976680 -2.318982
v -0.706813 7.477693 -2.414490
v -1.286965 7.309214 -1.473065
v -0.823371 7.070713 -2.411587
v -0.113201 7.742098 -2.089395
v 0.951852 7.201904 -1.409604
v 0.610085 7.585026 -2.136750
v 0.872741 7.064844 -2.163395
v -0.239744 6.171670 4.480400
v -0.069110 6.178039 4.525536
v 0.283962 6.180155 4.485228
v -0.069279 7.126235 4.505920
v 0.538747 6.977196 4.497235
v -0.511130 6.979417 4.507950
v -0.578896 6.871692 4.509581
v -0.601748 6.219410 -3.304443
v -0.040885 6.117533 -3.287120
v 0.685831 6.219374 -3.229466
v -0.346391 6.399748 -3.733316
v -0.056030 6.396342 -3.759335
v 0.421977 6.402181 -3.697710
v -0.698521 7.442244 -3.149068
v -0.717601 7.051591 -3.184656
v -0.434837 7.086362 -3.669943
v 0.781739 7.429476 -3.058120
v 0.803917 7.043848 -3.092437
v -0.422557 7.420959 -3.631662
v -0.054731 7.419535 -3.666314
v 0.485782 7.415081 -3.579070
v -0.053673 7.085537 -3.705600
v 0.500241 7.081719 -3.616289
v -1.607577 6.070892 1.014473
v -1.664930 6.046347 -0.249355
v 0.605111 6.871993 4.496727
v 0.307871 7.241095 5.173240
v 0.295917 6.793746 5.072115
v -0.260382 7.124560 5.037652
v -0.073612 7.281673 5.063056
v -0.258741 6.793626 5.080725
v -0.433614 10.388332 -2.707864
v -0.135084 10.957966 -2.193743
v 0.509659 10.370305 -2.680885
v 0.262954 11.944630 -3.874850
v -0.045495 11.943863 -3.938227
v -0.184668 11.952180 -3.890522
v 0.398931 11.299342 -3.157170
v -0.202372 11.317608 -3.068480
v -0.559244 14.298317 1.635638
v 0.598883 14.460914 0.483547
v -0.598879 14.468253 0.481612
v -0.065002 6.781067 5.107812
v -0.130159 12.359960 -2.594340
v -0.039097 11.321594 -3.008116
v 0.234300 12.350394 -2.579508
v -0.029765 12.390016 -2.603313
v -0.133410 12.392718 -2.294243
v 0.242303 12.383042 -2.278652
v -0.027158 12.426744 -2.267604
v -0.140581 12.126794 -3.483981
v -0.035865 12.153718 -3.327579
v 0.305776 12.102563 -3.483123
v 0.226159 12.054656 -3.894882
v -0.045045 12.082940 -3.928562
v -0.141337 12.061273 -3.908738
vt 0.354067 0.014940
vt 0.375000 0.928881
vt 0.483561 0.000000
vt 0.375000 0.271613
vt 0.489462 0.222676
vt 0.696789 0.250000
vt 0.622276 0.272204
vt 0.489608 0.526950
vt 0.625000 0.442278
vt 0.375107 0.797691
vt 0.624976 0.733371
vt 0.306716 0.250000
vt 0.490445 0.250744
vt 0.490582 0.498801
vt 0.601474 0.250000
vt 0.489010 0.250000
vt 0.399161 0.499082
vt 0.490497 0.500000
vt 0.379637 0.273622
vt 0.400683 0.250000
vt 0.489605 0.250000
vt 0.620467 0.273751
vt 0.491592 0.250655
vt 0.623464 0.273141
vt 0.375000 0.442253
vt 0.490498 0.500000
vt 0.491875 0.498966
vt 0.597009 0.498724
vt 0.376794 0.273384
vt 0.485407 0.274131
vt 0.588058 0.273173
vt 0.486918 0.437449
vt 0.381085 0.250000
vt 0.601944 0.250000
vt 0.619647 0.250000
vt 0.618961 0.250000
vt 0.399695 0.250000
vt 0.378912 0.499091
vt 0.389230 0.500000
vt 0.380035 0.498914
vt 0.589290 0.500000
vt 0.480567 0.250000
vt 0.561219 0.250000
vt 0.483299 0.250000
vt 0.383762 0.250000
vt 0.486649 0.500000
vt 0.437116 0.500000
vt 0.564787 0.500000
vt 0.375000 0.500000
vt 0.375000 0.500000
vt 0.625000 0.500000
vt 0.625000 0.500000
vt 0.485370 0.500000
vt 0.579595 0.500000
vt 0.485372 0.500000
vt 0.616091 0.250000
vt 0.558201 0.250000
vt 0.480441 0.500000
vt 0.476607 0.500000
vt 0.595404 0.500000
vt 0.403919 0.439658
vt 0.477465 0.500000
vt 0.473628 0.500000
vt 0.476593 0.500000
vt 0.476247 0.500000
vt 0.583480 0.500000
vt 0.474633 0.500000
vt 0.487612 0.807407
vt 0.381616 0.273223
vt 0.617986 0.273081
vt 0.625000 0.440929
vt 0.375000 0.441199
vt 0.377945 0.272565
vt 0.375011 0.272476
vt 0.489752 0.250013
vt 0.401100 0.250000
vt 0.620032 0.273228
vt 0.625000 0.440624
vt 0.490150 0.498746
vt 0.601807 0.499254
vt 0.375000 0.440976
vt 0.491310 0.250010
vt 0.382508 0.274046
vt 0.617633 0.274147
vt 0.598580 0.250000
vt 0.625000 0.441773
vt 0.375000 0.441967
vt 0.375000 0.442730
vt 0.491048 0.499866
vt 0.402408 0.498922
vt 0.625000 0.442099
vt 0.625000 0.442544
vt 0.393986 0.250000
vt 0.380367 0.250000
vt 0.487324 0.250000
vt 0.599256 0.250000
vt 0.488303 0.250000
vt 0.381013 0.250000
vt 0.381633 0.250000
vt 0.375000 0.498670
vt 0.488803 0.500000
vt 0.602322 0.500000
vt 0.388150 0.500000
vt 0.375003 0.500000
vt 0.486299 0.500000
vt 0.620575 0.498705
vt 0.622199 0.500000
vt 0.440399 0.250000
vt 0.603097 0.250000
vt 0.396149 0.500000
vt 0.485625 0.500000
vt 0.420870 0.500000
vt 0.579599 0.500000
vt 0.559273 0.250000
vt 0.441743 0.250000
vt 0.480611 0.250000
vt 0.441902 0.250000
vt 0.397270 0.500000
vt 0.603058 0.500000
vt 0.561992 0.500000
vt 0.438843 0.500000
vt 0.411847 0.273193
vt 0.596025 0.439605
vt 0.482300 0.250000
vt 0.445232 0.500000
vt 0.551434 0.500000
vt 0.447163 0.500000
vt 0.553029 0.500000
vt 0.447457 0.500000
vt 0.552881 0.500000
vt 0.447849 0.500000
vt 0.420877 0.500000
vt 0.645903 0.014944
vt 0.482888 0.979071
vt 0.817009 0.013957
vt 0.375000 0.440808
vt 0.375000 0.442667
vt 0.183045 0.014201
vt 0.232980 0.249948
vt 0.604118 0.500000
vt 0.434528 0.500000
vt 0.397011 0.250000
vt 0.375000 0.272760
vt 0.375000 0.440774
vt 0.625000 0.931285
vt 0.836304 0.250000
vt 0.624937 0.857435
vn -0.997446 -0.047256 0.053563
vn -0.997405 -0.048264 0.053417
vn -0.993771 -0.101705 0.045559
vn -0.993771 -0.101705 0.045559
vn 0.996186 -0.071691 0.049740
vn 0.996231 -0.070923 0.049930
vn 0.993553 -0.105558 0.041346
vn 0.993553 -0.105558 0.041346
vn 0.996145 -0.077479 0.041131
vn 0.996417 -0.072708 0.043210
vn -0.996385 -0.057682 0.062376
vn -0.996907 -0.048397 0.061927
vn 0.994469 -0.032452 -0.099887
vn 0.992357 -0.058346 0.108733
vn -0.919288 -0.387648 0.068105
vn -0.909727 -0.409769 0.066979
vn -0.834563 -0.544298 0.085113
vn -0.841793 -0.538585 -0.036206
vn 0.995490 0.077093 0.055291
vn 0.996369 0.064002 0.056148
vn 0.986936 0.057404 0.150538
vn 0.994923 0.058188 -0.082108
vn 0.996246 0.063794 0.058512
vn 0.995963 0.068206 0.058362
vn -0.987185 0.146524 0.063224
vn -0.986585 0.150199 0.063959
vn -0.981252 0.180707 0.067011
vn -0.981360 0.180096 0.067069
vn -0.996215 -0.039456 -0.077449
vn -0.989974 -0.057650 0.128950
vn -0.104236 0.037090 0.993861
vn -0.152945 -0.010517 0.988179
vn 0.006258 -0.014045 0.999882
vn 0.016921 0.030994 0.999376
vn 0.129113 -0.025032 0.991314
vn 0.089703 0.027106 0.995600
vn 0.267941 0.143735 -0.952653
vn 0.321649 0.145165 -0.935665
vn 0.010775 0.174561 -0.984587
vn 0.039390 0.161246 -0.986128
vn -0.356132 0.187054 -0.915522
vn -0.304891 0.171119 -0.936888
vn -0.156566 -0.965164 0.209631
vn -0.147136 -0.965893 0.213078
vn -0.017139 -0.980559 0.195475
vn -0.010682 -0.978431 0.206299
vn 0.115961 -0.977668 0.175267
vn 0.092847 -0.975128 0.201259
vn 0.268026 0.963411 -0.001167
vn 0.274947 0.960647 0.039516
vn 0.274947 0.960647 0.039516
vn 0.067177 0.997299 0.029713
vn 0.831456 0.554145 0.040042
vn 0.945030 0.244581 0.217023
vn 0.948353 0.216855 0.231518
vn 0.831456 0.554145 0.040042
vn 0.948843 -0.277445 0.150738
vn 0.959781 -0.237624 0.149519
vn 0.960541 -0.234598 0.149416
vn 0.948843 -0.277445 0.150738
vn -0.863636 0.386301 0.323888
vn -0.817258 0.447253 0.363393
vn -0.819334 0.449388 0.356008
vn -0.858541 0.409809 0.308162
vn -0.214769 0.967428 0.134007
vn -0.234143 0.965946 0.110111
vn -0.214769 0.967428 0.134007
vn -0.891487 -0.308233 0.332028
vn -0.902568 -0.330771 0.275611
vn -0.902568 -0.330771 0.275611
vn -0.893645 -0.312211 0.322372
vn -0.965857 -0.201887 0.162363
vn -0.976862 -0.163396 -0.137996
vn 0.561272 0.819889 0.112941
vn 0.561272 0.819889 0.112941
vn 0.561272 0.819889 0.112941
vn 0.561272 0.819889 0.112941
vn -0.670544 0.735081 0.100133
vn -0.670544 0.735081 0.100133
vn -0.670544 0.735081 0.100133
vn -0.670544 0.735081 0.100133
vn 0.231053 -0.972941 -0.001007
vn 0.231053 -0.972941 -0.001007
vn 0.231053 -0.972941 -0.001007
vn 0.231053 -0.972941 -0.001007
vn -0.274808 -0.961494 -0.003171
vn -0.274808 -0.961494 -0.003171
vn -0.274808 -0.961494 -0.003171
vn -0.274808 -0.961494 -0.003171
vn -0.140719 -0.940418 -0.309536
vn -0.161529 -0.931794 -0.325067
vn 0.017907 -0.939882 -0.341030
vn 0.035142 -0.955226 -0.293783
vn 0.163020 -0.932431 -0.322484
vn 0.195414 -0.944417 -0.264366
vn -0.982101 0.170305 -0.080466
vn -0.982101 0.170305 -0.080466
vn -0.982101 0.170305 -0.080466
vn -0.982101 0.170305 -0.080466
vn 0.954132 0.298376 0.024555
vn 0.954132 0.298376 0.024555
vn 0.996028 -0.003359 -0.088979
vn 0.998016 0.013963 -0.061401
vn 0.992866 0.080585 0.087877
vn 0.992866 0.080585 0.087877
vn 0.992866 0.080585 0.087877
vn 0.992866 0.080585 0.087877
vn -0.985942 0.107775 -0.127680
vn -0.985942 0.107775 -0.127680
vn -0.985942 0.107775 -0.127680
vn -0.985942 0.107775 -0.127680
vn 0.990885 -0.074893 -0.111973
vn 0.990500 -0.100145 -0.094238
vn -0.855092 -0.052821 -0.515779
vn -0.855092 -0.052821 -0.515779
vn -0.859878 -0.004119 -0.510482
vn -0.859525 -0.008605 -0.511022
vn -0.112805 -0.872825 -0.474818
vn 0.023678 -0.880511 -0.473433
vn -0.983133 -0.087505 -0.160599
vn -0.933593 -0.041699 -0.355902
vn -0.928201 -0.038147 -0.370117
vn -0.983133 -0.087505 -0.160599
vn -0.975641 0.082386 -0.203313
vn -0.975176 0.082455 -0.205506
vn -0.979869 0.081696 -0.182160
vn -0.979869 0.081696 -0.182160
vn 0.951117 0.054289 -0.304021
vn 0.951117 0.054289 -0.304022
vn 0.946150 0.057267 -0.318622
vn 0.945945 0.057386 -0.319209
vn 0.865568 0.006622 -0.500748
vn 0.865443 0.001935 -0.501004
vn 0.863494 -0.039702 -0.502794
vn 0.863494 -0.039702 -0.502794
vn 0.124472 -0.875607 -0.466710
vn 0.990493 0.137377 0.007131
vn 0.990493 0.137377 0.007131
vn 0.990493 0.137377 0.007131
vn 0.990493 0.137377 0.007131
vn -0.978463 0.158229 -0.132565
vn -0.978463 0.158229 -0.132565
vn -0.978463 0.158229 -0.132565
vn -0.978463 0.158229 -0.132565
vn 0.986015 0.086289 -0.142578
vn 0.986015 0.086289 -0.142578
vn 0.986015 0.086289 -0.142578
vn 0.986015 0.086289 -0.142578
vn 0.103121 0.986822 -0.124690
vn 0.103121 0.986822 -0.124690
vn 0.103121 0.986822 -0.124690
vn 0.103121 0.986822 -0.124690
vn -0.989467 0.136300 0.048759
vn -0.989467 0.136300 0.048759
vn -0.989467 0.136300 0.048759
vn -0.989467 0.136300 0.048759
vn -0.149459 0.980340 -0.128821
vn -0.149459 0.980340 -0.128821
vn -0.149459 0.980340 -0.128821
vn -0.149459 0.980340 -0.128821
vn 0.155933 0.981670 -0.109590
vn 0.155933 0.981670 -0.109590
vn 0.155933 0.981670 -0.109590
vn 0.155933 0.981670 -0.109590
vn -0.286421 0.952402 -0.104374
vn -0.286421 0.952402 -0.104374
vn -0.286421 0.952402 -0.104374
vn -0.286421 0.952402 -0.104374
vn -0.000602 -0.040492 0.999180
vn 0.109781 -0.038402 0.993214
vn 0.146680 -0.019092 0.989000
vn -0.008666 -0.017316 0.999813
vn -0.134594 -0.042364 0.989995
vn -0.178776 -0.013361 0.983799
vn -0.431601 -0.046280 -0.900876
vn -0.001499 -0.055206 -0.998474
vn 0.011323 -0.122673 -0.992383
vn -0.285659 -0.118836 -0.950935
vn 0.394607 -0.052190 -0.917367
vn 0.249549 -0.117780 -0.961173
vn 0.198563 -0.064877 0.977939
vn -0.015702 -0.042251 0.998984
vn -0.268106 -0.087197 0.959435
vn -0.509465 0.045622 -0.859281
vn 0.013723 0.030635 -0.999436
vn 0.492217 0.061455 -0.868301
vn 0.250381 -0.199645 0.947339
vn -0.027303 -0.246797 0.968682
vn -0.378783 -0.278168 0.882692
vn -0.496730 0.126946 -0.858571
vn -0.496730 0.126946 -0.858571
vn 0.506015 0.183377 -0.842806
vn 0.506015 0.183377 -0.842806
vn 0.316657 -0.092057 0.944062
vn -0.101843 -0.058693 0.993068
vn -0.101843 -0.058693 0.993068
vn 0.654760 -0.188524 0.731948
vn -0.173627 0.101325 0.979585
vn -0.173627 0.101325 0.979585
vn -0.173627 0.101325 0.979585
vn -0.173627 0.101325 0.979585
vn 0.143984 0.088841 -0.985584
vn 0.051581 0.085450 -0.995007
vn 0.054094 0.096321 -0.993879
vn 0.149364 0.098558 -0.983858
vn -0.090682 0.078828 -0.992755
vn -0.091363 0.092707 -0.991493
vn -0.154320 -0.036055 -0.987363
vn 0.050898 -0.040860 -0.997868
vn 0.172983 -0.041570 -0.984047
vn -0.225651 -0.082821 0.970681
vn -0.005722 -0.106405 0.994306
vn 0.202512 -0.123867 0.971414
vn 0.427737 0.146648 -0.891928
vn 0.002926 0.198130 -0.980172
vn -0.436542 0.211522 -0.874465
vn -0.356691 -0.705635 0.612251
vn 0.031182 -0.699435 0.714016
vn 0.015657 -0.830756 0.556416
vn -0.301273 -0.804202 0.512342
vn 0.264869 -0.641118 0.720286
vn 0.249194 -0.767988 0.589998
vn 0.897565 -0.089357 0.431732
vn 0.895768 -0.088608 0.435602
vn 0.789398 0.174178 0.588654
vn 0.789398 0.174178 0.588654
vn 0.789398 0.174178 0.588654
vn 0.789398 0.174178 0.588654
vn 0.788504 0.493564 0.366957
vn 0.788504 0.493564 0.366957
vn 0.788504 0.493564 0.366957
vn 0.788504 0.493564 0.366957
vn 0.209665 0.391760 0.895860
vn 0.028450 0.408051 0.912516
vn 0.039034 0.407476 0.912382
vn 0.209665 0.391760 0.895860
vn -0.190380 0.409578 0.892189
vn -0.190380 0.409578 0.892189
vn 0.060238 0.820133 0.568993
vn -0.136063 0.803534 0.579500
vn -0.136063 0.803534 0.579500
vn 0.105741 0.819420 0.563355
vn 0.257008 0.804348 0.535697
vn 0.257008 0.804348 0.535697
vn 0.309784 -0.855803 -0.414288
vn 0.091390 -0.904589 -0.416374
vn 0.078435 -0.926586 -0.367812
vn 0.281480 -0.887883 -0.363912
vn -0.192510 -0.900966 -0.388845
vn -0.164322 -0.914505 -0.369700
vn -0.859258 0.218046 -0.462744
vn -0.859258 0.218046 -0.462744
vn -0.859258 0.218046 -0.462744
vn -0.859258 0.218046 -0.462744
vn -0.825231 0.345627 -0.446694
vn -0.825231 0.345627 -0.446694
vn -0.825231 0.345627 -0.446694
vn -0.825231 0.345627 -0.446694
vn -0.926319 -0.031161 -0.375448
vn -0.924992 -0.082077 -0.371016
vn -0.298251 0.723386 -0.622703
vn -0.298251 0.723386 -0.622703
vn -0.298251 0.723386 -0.622703
vn -0.298251 0.723386 -0.622703
vn 0.307925 0.762595 -0.568886
vn 0.307925 0.762595 -0.568886
vn 0.307925 0.762595 -0.568886
vn 0.307925 0.762595 -0.568886
vn 0.226410 0.970341 -0.084720
vn 0.226410 0.970341 -0.084720
vn 0.226410 0.970341 -0.084720
vn 0.226410 0.970341 -0.084720
vn -0.255721 0.935479 -0.243899
vn -0.255721 0.935479 -0.243899
vn -0.255721 0.935479 -0.243899
vn -0.255721 0.935479 -0.243899
vn 0.914946 0.269069 -0.300792
vn 0.914946 0.269069 -0.300792
vn 0.914946 0.269069 -0.300792
vn 0.914946 0.269069 -0.300792
vn 0.975669 -0.014909 -0.218741
vn 0.974914 -0.013464 -0.222174
vn 0.873236 0.456771 -0.169765
vn 0.873236 0.456771 -0.169765
vn 0.873236 0.456771 -0.169765
vn 0.873236 0.456771 -0.169765
vn -0.791227 0.117030 0.600220
vn -0.791227 0.117030 0.600219
vn -0.782182 0.195197 0.591683
vn -0.785310 0.172653 0.594541
vn -0.876302 -0.233631 0.421321
vn -0.886032 -0.190734 0.422574
vn -0.156080 0.111248 0.981460
vn 0.411485 0.106203 0.905208
vn 0.415816 0.086463 0.905329
vn -0.080278 0.051820 0.995425
vn -0.719270 0.074347 0.690741
vn -0.726080 0.072344 0.683794
vn -0.161108 -0.053366 -0.985493
vn 0.047446 -0.056704 -0.997263
vn 0.174157 -0.057529 -0.983036
vn -0.823071 -0.519740 -0.228966
vn -0.599520 -0.700822 -0.386554
vn -0.634102 -0.681549 -0.365247
vn -0.660973 -0.665057 -0.347583
vn -0.599520 -0.700822 -0.386554
vn -0.709408 -0.631507 -0.312952
vn -0.709408 -0.631507 -0.312952
vn -0.540232 -0.787559 0.296481
vn -0.540232 -0.787559 0.296481
vn -0.606235 -0.715622 0.346935
vn -0.597756 -0.725834 0.340371
vn -0.776587 -0.566600 0.275458
vn -0.631045 -0.683815 0.366304
vn -0.631045 -0.683815 0.366304
vn -0.152427 -0.687394 0.710110
vn 0.003086 -0.694241 0.719736
vn 0.008244 -0.694179 0.719755
vn -0.152427 -0.687394 0.710110
vn 0.090686 -0.690672 0.717460
vn 0.090686 -0.690672 0.717460
vn 0.024108 0.967255 -0.252658
vn 0.208258 0.937421 -0.279053
vn -0.425809 0.892255 -0.150222
vn -0.877986 0.177649 0.444501
vn -0.877986 0.177649 0.444501
vn -0.817423 -0.412780 0.401787
vn -0.817423 -0.412780 0.401787
vn -0.817423 -0.412780 0.401787
vn 0.368782 0.358710 0.857512
vn 0.368782 0.358710 0.857512
vn 0.368782 0.358710 0.857512
vn 0.368782 0.358710 0.857512
vn -0.614397 0.342600 0.710733
vn -0.614397 0.342601 0.710733
vn -0.614397 0.342601 0.710733
vn -0.614397 0.342600 0.710733
vn -0.276469 0.015664 -0.960895
vn -0.276469 0.015664 -0.960895
vn -0.276469 0.015664 -0.960895
vn -0.276469 0.015664 -0.960895
vn 0.164330 -0.017070 -0.986258
vn 0.164330 -0.017070 -0.986258
vn 0.164330 -0.017070 -0.986258
vn 0.164330 -0.017070 -0.986258
vn -0.821222 0.040825 0.569147
vn -0.821222 0.040825 0.569147
vn 0.443056 -0.064051 0.894203
vn 0.443056 -0.064051 0.894203
vn -0.125093 0.409693 -0.903606
vn -0.125093 0.409693 -0.903606
vn -0.125093 0.409693 -0.903606
vn -0.125093 0.409693 -0.903606
vn 0.130092 0.376858 -0.917090
vn 0.130092 0.376858 -0.917090
vn 0.130092 0.376858 -0.917090
vn 0.130092 0.376858 -0.917090
vn 0.993687 0.096414 0.057370
vn 0.993687 0.096414 0.057370
vn -0.980601 0.184327 0.066670
vn -0.980601 0.184327 0.066670
vn 0.860687 -0.281521 0.424221
s 1
g pCube1
usemtl initialShadingGroup
f 4/12/1 7/139/2 10/138/3 1/1/4
s 2
f 9/146/5 6/6/6 3/133/7 12/135/8
f 17/71/9 15/70/10 6/7/6 9/9/5
s 1
f 13/69/11 18/72/12 7/137/2 4/4/1
s 2
f 26/78/13 23/77/14 15/70/10 17/71/9
s 1
f 29/136/15 19/73/16 20/74/17 30/81/18
f 19/73/16 29/136/15 18/72/12 13/69/11
s 2
f 51/91/19 38/22/20 43/24/21 42/86/22
f 38/22/20 51/91/19 53/92/23 40/84/24
s 1
f 44/25/25 33/19/26 36/83/27 46/88/28
f 33/19/26 44/25/25 45/87/29 54/29/30
s 5
f 121/122/31 36/83/32 39/23/33 55/30/34
f 40/84/35 57/31/36 55/30/34 39/23/33
s 6
f 122/123/37 53/92/38 50/27/39 56/32/40
f 46/88/41 123/61/42 56/32/40 50/27/39
s 7
f 82/108/43 59/93/44 61/95/45 83/42/46
f 62/34/47 84/43/48 83/42/46 61/95/45
s 8
f 86/109/49 63/96/50 66/97/51 85/44/52
s 9
f 63/96/53 86/109/54 107/56/55 65/36/56
s 2
f 84/43/57 62/34/58 65/36/59 107/56/60
s 11
f 87/142/61 68/37/62 69/99/63 88/45/64
s 8
f 68/37/65 87/142/66 85/44/52 66/97/67
s 1
f 59/93/68 82/108/69 88/45/70 69/99/71
f 105/143/72 106/144/73 30/81/18 20/74/17
s off
f 57/31/74 122/123/75 56/32/76 55/30/77
f 123/61/78 121/122/79 55/30/80 56/32/81
f 12/147/82 3/145/83 2/134/84 11/68/85
f 1/2/86 10/10/87 11/68/88 2/134/89
s 1
f 106/144/73 105/143/72 54/29/30 45/87/29
s 2
f 42/86/22 43/24/21 23/77/14 26/78/13
s 14
f 71/39/90 89/110/91 90/46/92 73/101/93
f 91/140/94 74/102/95 73/101/93 90/46/92
s off
f 75/103/96 95/49/97 96/50/98 77/104/99
s 2
f 98/51/100 80/41/101 81/107/102 99/52/103
s off
f 119/60/104 115/119/105 80/41/106 98/51/107
f 113/118/108 120/141/109 95/49/110 75/103/111
s 2
f 74/102/112 91/140/113 99/52/103 81/107/102
s 16
f 92/47/114 89/110/115 96/50/116 97/112/117
s 14
f 89/110/91 92/47/118 93/111/119 90/46/92
s 1
f 89/110/120 71/39/121 77/104/122 96/50/123
s 16
f 95/49/124 100/132/125 97/112/117 96/50/116
f 120/141/126 118/121/127 100/132/125 95/49/124
s 18
f 116/120/128 119/60/129 98/51/130 102/54/131
f 102/54/131 98/51/130 99/52/132 104/113/133
f 91/140/134 94/48/135 104/113/133 99/52/132
s 14
f 94/48/136 91/140/94 90/46/92 93/111/119
s off
f 115/119/137 119/60/138 127/126/139 130/128/140
f 120/141/141 113/118/142 129/127/143 125/125/144
f 135/130/145 134/66/146 119/60/147 116/120/148
f 134/66/149 135/130/150 136/67/151 133/65/152
f 132/129/153 137/131/154 118/121/155 120/141/156
f 137/131/157 132/129/158 133/65/159 136/67/160
f 130/128/161 127/126/162 128/63/163 131/64/164
f 125/125/165 129/127/166 131/64/167 128/63/168
s 19
f 2/3/169 3/133/170 6/6/171 5/5/172
f 1/1/173 2/3/169 5/5/172 4/12/174
s 20
f 7/137/175 8/8/176 11/68/177 10/10/178
f 8/8/176 9/9/179 12/11/180 11/68/177
s 19
f 5/5/172 6/6/171 15/70/181 14/13/182
f 4/12/174 5/5/172 14/13/182 13/69/183
s 20
f 8/8/176 7/137/175 18/72/184 16/14/185
f 9/9/179 8/8/176 16/14/185 17/71/186
s 19
f 14/13/182 15/70/181 23/77/187 21/75/188
f 13/69/183 14/13/182 21/75/188 19/73/189
s 20
f 16/14/185 18/72/184 29/136/190 27/79/191
f 17/71/186 16/14/185 27/79/192 26/78/193
s 9
f 108/114/194 111/116/195 124/124/196 109/57/197
s off
f 112/117/198 124/124/199 111/116/200 110/115/201
s 22
f 94/48/202 93/111/203 103/55/204 104/113/205
f 93/111/203 92/47/206 97/112/207 103/55/204
f 103/55/204 97/112/207 100/132/208 101/53/209
f 104/113/205 103/55/204 101/53/209 102/54/210
s 5
f 33/19/211 35/82/212 39/23/33 36/83/32
f 35/82/212 38/22/213 40/84/35 39/23/33
s 6
f 51/91/214 47/89/215 50/27/39 53/92/38
f 47/89/215 44/25/216 46/88/41 50/27/39
s 7
f 19/73/217 21/75/218 25/16/219 22/76/220
f 21/75/218 23/77/221 24/15/222 25/16/219
f 25/16/219 24/15/222 62/34/47 61/95/45
f 22/76/220 25/16/219 61/95/45 59/93/44
s 2
f 62/34/58 24/15/223 64/35/224 65/36/59
f 24/15/223 23/77/14 43/24/21 64/35/224
s off
f 64/35/225 43/24/226 38/22/227 41/85/228
f 65/36/229 64/35/230 41/85/231 63/96/232
s 24
f 38/22/233 35/82/234 37/21/235 41/85/236
f 35/82/234 33/19/237 34/20/238 37/21/235
s 25
f 37/21/239 34/20/240 68/37/241 66/97/242
f 41/85/243 37/21/239 66/97/242 63/96/244
s 14
f 26/78/245 27/79/246 32/18/247 28/80/248
f 27/79/246 29/136/249 31/17/250 32/18/247
f 32/18/247 31/17/250 71/39/90 73/101/93
f 28/80/248 32/18/247 73/101/93 74/102/95
s off
f 44/25/251 48/90/252 76/40/253 45/87/254
f 48/90/255 75/103/256 77/104/257 76/40/258
s 1
f 76/40/259 77/104/122 71/39/121 72/100/260
f 45/87/29 76/40/259 72/100/260 106/144/73
s off
f 44/25/261 47/89/262 49/26/263 48/90/264
f 47/89/265 51/91/266 52/28/267 49/26/268
f 49/26/269 52/28/270 80/41/271 78/105/272
f 48/90/273 49/26/274 78/105/275 75/103/276
f 51/91/277 42/86/278 79/106/279 52/28/280
s 2
f 42/86/22 26/78/13 28/80/281 79/106/282
f 79/106/282 28/80/281 74/102/112 81/107/102
s off
f 52/28/283 79/106/284 81/107/285 80/41/286
s 11
f 33/19/287 54/29/288 67/98/289 34/20/290
s 1
f 54/29/30 105/143/72 60/94/291 67/98/292
f 67/98/292 60/94/291 59/93/68 69/99/71
s 11
f 34/20/290 67/98/289 69/99/63 68/37/62
s 27
f 78/105/293 80/41/294 115/119/295 114/58/296
f 75/103/297 78/105/293 114/58/296 113/118/298
s 22
f 101/53/209 100/132/208 118/121/299 117/59/300
f 102/54/210 101/53/209 117/59/300 116/120/301
s 1
f 106/144/73 72/100/260 70/38/302 30/81/18
s 28
f 71/39/303 31/17/304 70/38/305 72/100/306
f 29/136/307 30/81/308 70/38/305 31/17/304
s 29
f 59/93/309 60/94/310 58/33/311 22/76/312
s 1
f 105/143/72 20/74/17 58/33/313 60/94/291
s 29
f 19/73/314 22/76/312 58/33/311 20/74/315
s 30
f 82/108/316 83/42/317 124/124/318 112/117/319
f 83/42/317 84/43/320 109/57/321 124/124/318
s 8
f 86/109/49 85/44/52 111/116/322 108/114/323
f 85/44/52 87/142/66 110/115/324 111/116/322
s 11
f 87/142/61 88/45/64 112/117/325 110/115/326
s off
f 88/45/327 82/108/328 112/117/329
f 126/62/330 119/60/331 134/66/332 133/65/333
f 120/141/334 126/62/335 133/65/336 132/129/337
f 117/59/338 118/121/339 137/131/340 136/67/341
f 116/120/342 117/59/343 136/67/344 135/130/345
s 27
f 113/118/298 114/58/296 131/64/346 129/127/347
f 114/58/296 115/119/295 130/128/348 131/64/349
s off
f 119/60/350 126/62/351 128/63/352 127/126/353
f 126/62/354 120/141/355 125/125/356 128/63/357
s 2
f 53/92/23 122/123/358 57/31/359 40/84/24
s 1
f 36/83/27 121/122/360 123/61/361 46/88/28
s 9
f 86/109/54 109/57/197 84/43/362 107/56/55
f 108/114/194 109/57/197 86/109/54
