# This file uses centimeters as units for non-parametric coordinates.

mtllib Railing_1b .mtl
g default
v 6.274741 0.501442 -5.996681
v 6.274741 0.501442 5.996681
v 6.274741 1.501442 5.996681
v 6.274741 1.501442 -5.996681
v 6.274741 2.501442 5.996681
v 6.274741 2.501442 -5.996681
v 6.274741 3.501442 5.996681
v 6.274741 3.501442 -5.996681
v 6.274741 4.501442 -5.996681
v 6.274741 4.501442 5.996681
v -7.708246 0.501442 -5.996681
v -7.708246 0.501442 5.996681
v -7.708246 1.501442 5.996681
v -7.708246 1.501442 -5.996681
v -7.708246 2.501442 5.996681
v -7.708246 2.501442 -5.996681
v -7.708246 3.501442 5.996681
v -7.708246 3.501442 -5.996681
v -7.708246 4.501442 5.996681
v -7.708246 4.501442 -5.996681
v 6.274743 0.501442 -5.013851
v 6.274741 0.501442 5.013850
v 6.274743 1.501442 -5.013851
v 6.274741 1.501442 5.013850
v 6.274743 2.501442 5.013851
v 6.274741 2.501442 -5.013850
v 6.274743 3.501442 -5.013851
v 6.274741 3.501442 5.013850
v 6.274743 4.501442 5.013851
v 6.274741 4.501442 -5.013850
v -7.708246 4.501442 5.013851
v -7.708246 4.501442 -5.013850
v -7.708246 3.501442 5.013851
v -7.708246 3.501442 -5.013850
v -7.708246 2.501442 5.013851
v -7.708246 2.501442 -5.013850
v -7.708246 1.501442 5.013851
v -7.708246 1.501442 -5.013850
v -7.708246 0.501442 -5.013851
v -7.708246 0.501442 5.013850
v 6.274741 6.837130 -5.013850
v -7.708246 6.837130 -5.013850
v 6.274741 6.837130 -5.996681
v -7.708246 6.837130 -5.996681
v 6.274741 6.837130 5.996681
v 6.274743 6.837130 5.013851
v -7.708246 6.837130 5.013851
v -7.708246 6.837130 5.996681
vt 0.125000 0.000000
vt 0.375000 0.000000
vt 0.375000 0.250000
vt 0.125000 0.250000
vt 0.375000 0.250000
vt 0.125000 0.250000
vt 0.375000 0.250000
vt 0.125000 0.250000
vt 0.125000 0.250000
vt 0.375000 0.250000
vt 0.125000 0.000000
vt 0.375000 0.000000
vt 0.375000 0.250000
vt 0.125000 0.250000
vt 0.375000 0.250000
vt 0.125000 0.250000
vt 0.375000 0.250000
vt 0.125000 0.250000
vt 0.375000 0.250000
vt 0.125000 0.250000
vt 0.145487 0.000000
vt 0.354513 0.000000
vt 0.145487 0.250000
vt 0.354513 0.250000
vt 0.354513 0.250000
vt 0.145487 0.250000
vt 0.145487 0.250000
vt 0.354513 0.250000
vt 0.354513 0.250000
vt 0.145487 0.250000
vt 0.354513 0.250000
vt 0.145487 0.250000
vt 0.354513 0.250000
vt 0.145487 0.250000
vt 0.354513 0.250000
vt 0.145487 0.250000
vt 0.354513 0.250000
vt 0.145487 0.250000
vt 0.145487 0.000000
vt 0.354513 0.000000
vt 0.145487 0.250000
vt 0.145487 0.250000
vt 0.125000 0.250000
vt 0.125000 0.250000
vt 0.375000 0.250000
vt 0.354513 0.250000
vt 0.354513 0.250000
vt 0.375000 0.250000
vn -1.000000 0.000000 0.000000
vn -1.000000 0.000000 0.000000
vn -1.000000 0.000000 0.000000
vn -1.000000 0.000000 0.000000
vn -1.000000 0.000000 0.000000
vn -1.000000 0.000000 0.000000
vn -1.000000 0.000000 0.000000
vn -1.000000 0.000000 0.000000
vn -1.000000 0.000000 0.000000
vn -1.000000 0.000000 0.000000
vn 0.000000 -1.000000 0.000000
vn 0.000000 -1.000000 0.000000
vn 0.000000 -1.000000 0.000000
vn 0.000000 -1.000000 0.000000
vn 0.000000 -1.000000 0.000000
vn 0.000000 -1.000000 0.000000
vn 0.000000 -1.000000 0.000000
vn 0.000000 -1.000000 0.000000
vn 0.000000 0.000000 1.000000
vn 0.000000 0.000000 1.000000
vn 0.000000 0.000000 1.000000
vn 0.000000 0.000000 1.000000
vn 0.000000 0.000000 -1.000000
vn 0.000000 0.000000 -1.000000
vn 0.000000 0.000000 -1.000000
vn 0.000000 0.000000 -1.000000
vn 0.000000 0.000000 1.000000
vn 0.000000 0.000000 1.000000
vn 0.000000 0.000000 -1.000000
vn 0.000000 0.000000 -1.000000
vn 0.000000 0.000000 1.000000
vn 0.000000 0.000000 1.000000
vn 0.000000 0.000000 -1.000000
vn 0.000000 0.000000 -1.000000
vn 0.000000 0.000000 1.000000
vn 0.000000 0.000000 1.000000
vn 0.000000 1.000000 0.000000
vn 0.000000 1.000000 0.000000
vn 0.000000 1.000000 0.000000
vn 0.000000 1.000000 0.000000
vn 0.000000 0.000000 -1.000000
vn 0.000000 0.000000 -1.000000
vn 1.000000 -0.000000 0.000000
vn 1.000000 0.000000 0.000000
vn 1.000000 0.000000 -0.000000
vn 1.000000 0.000000 -0.000000
vn 1.000000 0.000000 0.000000
vn 1.000000 -0.000000 -0.000000
vn 1.000000 -0.000000 -0.000000
vn 1.000000 0.000000 0.000000
vn 1.000000 0.000000 -0.000001
vn 1.000000 -0.000001 -0.000001
vn 1.000000 0.000000 0.000000
vn 1.000000 0.000000 -0.000001
vn 1.000000 0.000000 -0.000001
vn 1.000000 -0.000001 -0.000000
vn 0.000000 1.000000 0.000000
vn 0.000000 1.000000 0.000000
vn 0.000000 1.000000 0.000000
vn 0.000000 1.000000 0.000000
vn -1.000000 0.000000 0.000000
vn -1.000000 0.000000 0.000000
vn -1.000000 0.000000 0.000000
vn -1.000000 0.000000 0.000000
vn -1.000000 0.000000 0.000000
vn -1.000000 0.000000 0.000000
vn -1.000000 0.000000 0.000000
vn -1.000000 0.000000 0.000000
vn -1.000000 0.000000 0.000000
vn -1.000000 0.000000 0.000000
vn 0.000000 1.000000 0.000000
vn 0.000000 1.000000 0.000000
vn 0.000000 1.000000 0.000000
vn 0.000000 1.000000 0.000000
vn 1.000000 -0.000000 0.000001
vn 1.000000 0.000001 0.000001
vn 1.000000 -0.000000 0.000001
vn 1.000000 0.000001 0.000000
vn 1.000000 0.000000 0.000000
vn 1.000000 0.000000 0.000000
vn 0.000000 0.000000 1.000000
vn 0.000000 0.000000 1.000000
vn 0.000000 0.000000 1.000000
vn 0.000000 0.000000 1.000000
vn 1.000000 0.000000 0.000000
vn 1.000000 0.000000 0.000000
vn 0.000000 0.000000 -1.000000
vn 0.000000 0.000000 -1.000000
vn -1.000000 0.000000 0.000000
vn -1.000000 0.000000 0.000000
vn 1.000000 0.000000 0.000001
vn 1.000000 0.000000 0.000001
vn 0.000000 0.000000 -1.000000
vn 0.000000 0.000000 -1.000000
vn 0.000000 0.000000 -1.000000
vn 0.000000 0.000000 -1.000000
vn -1.000000 0.000000 0.000000
vn -1.000000 0.000000 0.000000
vn 0.000000 0.000000 1.000000
vn 0.000000 0.000000 1.000000
s 1
g pasted__pCube7
usemtl initialShadingGroup
f 38/38/1 39/39/2 40/40/3 37/37/4
f 36/36/5 38/38/1 37/37/4 35/35/6
f 34/34/7 36/36/5 35/35/6 33/33/8
f 32/32/9 34/34/7 33/33/8 31/31/10
s off
f 1/1/11 21/21/12 22/22/13 2/2/14 12/12/15 40/40/16 39/39/17 11/11/18
s 2
f 2/2/19 3/3/20 13/13/21 12/12/22
s 3
f 4/4/23 1/1/24 11/11/25 14/14/26
s 2
f 3/3/20 5/5/27 15/15/28 13/13/21
s 3
f 6/6/29 4/4/23 14/14/26 16/16/30
s 2
f 5/5/27 7/7/31 17/17/32 15/15/28
s 3
f 8/8/33 6/6/29 16/16/30 18/18/34
s 2
f 7/7/31 10/10/35 19/19/36 17/17/32
s off
f 31/31/37 29/29/38 30/30/39 32/32/40
s 3
f 9/9/41 8/8/33 18/18/34 20/20/42
s 4
f 28/28/43 25/25/44 26/26/45 27/27/46
f 29/29/47 28/28/43 27/27/46 30/30/48
f 23/23/49 21/21/50 1/1/51 4/4/52
f 25/25/44 24/24/53 23/23/49 26/26/45
f 26/26/45 23/23/49 4/4/52 6/6/54
f 27/27/46 26/26/45 6/6/54 8/8/55
f 30/30/48 27/27/46 8/8/55 9/9/56
s off
f 42/41/57 41/42/58 43/43/59 44/44/60
s 1
f 18/18/61 34/34/7 32/32/9 20/20/62
f 16/16/63 36/36/5 34/34/7 18/18/61
f 14/14/64 38/38/1 36/36/5 16/16/63
f 11/11/65 39/39/2 38/38/1 14/14/64
f 37/37/4 40/40/3 12/12/66 13/13/67
f 35/35/6 37/37/4 13/13/67 15/15/68
f 33/33/8 35/35/6 15/15/68 17/17/69
f 31/31/10 33/33/8 17/17/69 19/19/70
s off
f 45/45/71 46/46/72 47/47/73 48/48/74
s 4
f 7/7/75 28/28/43 29/29/47 10/10/76
f 5/5/77 25/25/44 28/28/43 7/7/75
f 3/3/78 24/24/53 25/25/44 5/5/77
f 2/2/79 22/22/80 24/24/53 3/3/78
f 23/23/49 24/24/53 22/22/80 21/21/50
s off
f 32/32/81 30/30/82 41/42/83 42/41/84
s 4
f 30/30/48 9/9/56 43/43/85 41/42/86
s 3
f 9/9/41 20/20/42 44/44/87 43/43/88
s 1
f 20/20/62 32/32/9 42/41/89 44/44/90
s 4
f 10/10/76 29/29/47 46/46/91 45/45/92
s off
f 29/29/93 31/31/94 47/47/95 46/46/96
s 1
f 31/31/10 19/19/70 48/48/97 47/47/98
s 2
f 19/19/36 10/10/35 45/45/99 48/48/100
