# This file uses centimeters as units for non-parametric coordinates.

mtllib StreetLamp.mtl
g default
v 0.623490 0.293066 -0.781831
v -0.222521 0.293066 -0.974928
v -0.900969 0.293066 -0.433884
v -0.900969 0.293066 0.433884
v -0.222521 0.293066 0.974928
v 0.623490 0.293066 0.781832
v 1.000000 0.293066 0.000000
v 0.623490 4.293066 -0.781831
v -0.222521 4.293066 -0.974928
v -0.900969 4.293066 -0.433884
v -0.900969 4.293066 0.433884
v -0.222521 4.293066 0.974928
v 0.623490 4.293066 0.781832
v 1.000000 4.293066 0.000000
v 0.000000 0.293066 0.000000
v 0.623490 8.293066 -0.781833
v -0.222521 8.293066 -0.974928
v -0.900969 8.293066 -0.433883
v -0.900969 8.293066 0.433884
v -0.222521 8.293066 0.974928
v 0.623490 8.293066 0.781832
v 1.000000 8.293066 0.000000
v 0.623490 12.293066 -0.781835
v -0.222521 12.293066 -0.974929
v -0.900969 12.293066 -0.433881
v -0.900969 12.293066 0.433884
v -0.222521 12.293066 0.974929
v 0.623490 12.293066 0.781832
v 1.000000 12.293066 0.000000
v 0.623490 16.293068 -0.781835
v -0.222521 16.293068 -0.974929
v -0.900969 16.293068 -0.433881
v -0.900969 16.293068 0.433884
v -0.222521 16.293068 0.974931
v 0.623490 16.293068 0.781835
v 1.000000 16.293068 0.000000
v 0.623490 20.293068 -0.781840
v -0.222521 20.293068 -0.974932
v -0.900969 20.293068 -0.433880
v -0.900969 20.293068 0.433884
v -0.222521 20.293068 0.974935
v 0.623490 20.293068 0.781838
v 1.000000 20.293068 0.000000
v 0.795410 23.353188 -1.016029
v -0.304003 23.353188 -1.266948
v -1.185664 23.353188 -0.563830
v -1.185664 23.353188 0.563842
v -0.304003 23.353188 1.266956
v 0.795410 23.353188 1.016028
v 1.284695 23.353188 0.000005
v 1.667328 25.752428 -2.203726
v -0.717250 25.752428 -2.747955
v -2.629529 25.752428 -1.222915
v -2.629529 25.752428 1.222953
v -0.717250 25.752428 2.747961
v 1.667328 25.752428 2.203713
v 2.728560 25.752428 0.000008
v 1.667332 29.823109 -2.203735
v -0.717252 29.823109 -2.747963
v -2.629535 29.823109 -1.222919
v -2.629535 29.823109 1.222957
v -0.717252 29.823109 2.747969
v 1.667332 29.823109 2.203717
v 2.728568 29.823109 0.000004
v 0.991476 31.508713 -1.283107
v -0.396928 31.508713 -1.599979
v -0.031745 31.508718 0.000003
v -1.510339 31.508713 -0.712034
v -1.510339 31.508713 0.712057
v -0.396928 31.508713 1.599982
v 0.991476 31.508713 1.283097
v 1.609371 31.508713 0.000003
v -3.000000 0.250000 3.000000
v 3.000000 0.250000 3.000000
v -1.931549 1.013634 1.931549
v 1.931549 1.013634 1.931549
v -1.931549 1.013634 -1.931548
v 1.931549 1.013634 -1.931548
v -3.000000 0.250000 -3.000000
v 3.000000 0.250000 -3.000000
v -3.000000 0.636869 3.000000
v 3.000000 0.636869 3.000000
v 3.000000 0.636869 -3.000000
v -3.000000 0.636869 -3.000000
vt 0.597420 0.034089
vt 0.465231 0.003918
vt 0.359224 0.088456
vt 0.359224 0.224044
vt 0.465231 0.308582
vt 0.597420 0.278411
vt 0.656250 0.156250
vt 0.375000 0.312500
vt 0.410714 0.312500
vt 0.446429 0.312500
vt 0.482143 0.312500
vt 0.517857 0.312500
vt 0.553571 0.312500
vt 0.589286 0.312500
vt 0.625000 0.312500
vt 0.375000 0.688440
vt 0.410714 0.688440
vt 0.446429 0.688440
vt 0.482143 0.688440
vt 0.517857 0.688440
vt 0.553571 0.688440
vt 0.589286 0.688440
vt 0.625000 0.688440
vt 0.597420 0.721589
vt 0.465231 0.691418
vt 0.359224 0.775956
vt 0.359224 0.911544
vt 0.465231 0.996082
vt 0.597420 0.965911
vt 0.656250 0.843750
vt 0.500000 0.150000
vt 0.500000 0.837500
vt 0.597420 0.965911
vt 0.465231 0.996082
vt 0.359224 0.911544
vt 0.359224 0.775956
vt 0.465231 0.691418
vt 0.597420 0.721589
vt 0.656250 0.843750
vt 0.597420 0.965911
vt 0.465231 0.996082
vt 0.359224 0.911544
vt 0.359224 0.775956
vt 0.465231 0.691418
vt 0.597420 0.721589
vt 0.656250 0.843750
vt 0.597420 0.965911
vt 0.465231 0.996082
vt 0.359224 0.911544
vt 0.359224 0.775956
vt 0.465231 0.691418
vt 0.597420 0.721589
vt 0.656250 0.843750
vt 0.597420 0.965911
vt 0.465231 0.996082
vt 0.359224 0.911544
vt 0.359224 0.775956
vt 0.465231 0.691418
vt 0.597420 0.721589
vt 0.656250 0.843750
vt 0.597420 0.965911
vt 0.465231 0.996082
vt 0.359224 0.911544
vt 0.359224 0.775956
vt 0.465231 0.691418
vt 0.597420 0.721589
vt 0.656250 0.843750
vt 0.597420 0.965911
vt 0.465231 0.996082
vt 0.359224 0.911544
vt 0.359224 0.775956
vt 0.465231 0.691418
vt 0.597420 0.721589
vt 0.656250 0.843750
vt 0.597420 0.965911
vt 0.465231 0.996082
vt 0.359224 0.911544
vt 0.359224 0.775956
vt 0.465231 0.691418
vt 0.597420 0.721589
vt 0.656250 0.843750
vt 0.597420 0.965911
vt 0.465231 0.996082
vt 0.359224 0.911544
vt 0.359224 0.775956
vt 0.465231 0.691418
vt 0.597420 0.721589
vt 0.656250 0.843750
vt 0.375000 0.113805
vt 0.625000 0.113805
vt 0.625000 0.250000
vt 0.375000 0.250000
vt 0.625000 0.500000
vt 0.375000 0.500000
vt 0.625000 0.636195
vt 0.375000 0.636195
vt 0.375000 0.750000
vt 0.625000 0.750000
vt 0.625000 1.000000
vt 0.375000 1.000000
vt 0.875000 0.113805
vt 0.875000 0.250000
vt 0.125000 0.113805
vt 0.125000 0.250000
vt 0.375000 0.000000
vt 0.625000 0.000000
vt 0.875000 0.000000
vt 0.125000 0.000000
vn 0.222521 0.000000 -0.974928
vn 0.222521 0.000000 -0.974928
vn 0.222521 -0.000000 -0.974928
vn 0.222521 -0.000000 -0.974928
vn -0.623490 0.000000 -0.781832
vn -0.623490 0.000000 -0.781832
vn -0.623490 0.000000 -0.781831
vn -0.623490 0.000000 -0.781831
vn -1.000000 0.000000 -0.000000
vn -1.000000 0.000000 -0.000000
vn -1.000000 -0.000000 -0.000000
vn -1.000000 -0.000000 -0.000000
vn -0.623490 0.000000 0.781832
vn -0.623490 0.000000 0.781832
vn -0.623490 -0.000000 0.781831
vn -0.623490 -0.000000 0.781831
vn 0.222521 0.000000 0.974928
vn 0.222521 0.000000 0.974928
vn 0.222521 -0.000000 0.974928
vn 0.222521 -0.000000 0.974928
vn 0.900969 0.000000 0.433884
vn 0.900969 0.000000 0.433884
vn 0.900969 -0.000000 0.433884
vn 0.900969 -0.000000 0.433884
vn 0.900969 0.000000 -0.433884
vn 0.900969 0.000000 -0.433884
vn 0.900969 -0.000000 -0.433884
vn 0.900969 -0.000000 -0.433884
vn 0.000000 -1.000000 0.000000
vn 0.000000 -1.000000 0.000000
vn 0.000000 -1.000000 -0.000000
vn 0.000000 -1.000000 -0.000000
vn 0.000000 -1.000000 -0.000000
vn 0.000000 -1.000000 0.000000
vn 0.000000 -1.000000 0.000000
vn 0.000000 -1.000000 0.000000
vn 0.000002 1.000000 -0.000005
vn -0.000001 1.000000 -0.000003
vn 0.000000 1.000000 0.000000
vn -0.000003 1.000000 0.000000
vn -0.000003 1.000000 0.000000
vn -0.000001 1.000000 0.000004
vn 0.000002 1.000000 0.000006
vn 0.000003 1.000000 -0.000000
vn 0.222520 -0.000000 -0.974928
vn 0.222520 -0.000000 -0.974928
vn -0.623491 0.000000 -0.781831
vn -0.623491 0.000000 -0.781831
vn -1.000000 -0.000000 -0.000000
vn -1.000000 -0.000000 -0.000000
vn -0.623490 -0.000000 0.781831
vn -0.623490 -0.000000 0.781831
vn 0.222521 -0.000000 0.974928
vn 0.222521 -0.000000 0.974928
vn 0.900969 -0.000000 0.433884
vn 0.900969 -0.000000 0.433884
vn 0.900969 -0.000000 -0.433883
vn 0.900969 -0.000000 -0.433883
vn 0.222519 -0.000000 -0.974928
vn 0.222519 -0.000000 -0.974928
vn -0.623492 0.000000 -0.781830
vn -0.623492 0.000000 -0.781830
vn -1.000000 0.000000 -0.000000
vn -1.000000 0.000000 -0.000000
vn -0.623491 -0.000000 0.781831
vn -0.623491 -0.000000 0.781831
vn 0.222521 -0.000000 0.974928
vn 0.222521 -0.000000 0.974928
vn 0.900969 -0.000000 0.433883
vn 0.900969 -0.000000 0.433883
vn 0.900970 -0.000000 -0.433882
vn 0.900970 -0.000000 -0.433882
vn 0.222518 -0.000001 -0.974929
vn 0.222518 -0.000001 -0.974929
vn -0.623493 -0.000000 -0.781829
vn -0.623493 -0.000000 -0.781829
vn -1.000000 -0.000000 -0.000000
vn -1.000000 -0.000000 -0.000000
vn -0.623492 -0.000000 0.781829
vn -0.623492 -0.000000 0.781829
vn 0.222521 -0.000001 0.974928
vn 0.222521 -0.000001 0.974928
vn 0.900970 -0.000000 0.433882
vn 0.900970 -0.000000 0.433882
vn 0.900970 -0.000000 -0.433882
vn 0.900970 -0.000000 -0.433882
vn 0.222324 -0.041370 -0.974095
vn 0.222326 -0.041244 -0.974100
vn -0.622911 -0.043299 -0.781093
vn -0.622914 -0.043193 -0.781097
vn -0.999027 -0.044110 -0.000000
vn -0.999027 -0.044110 -0.000000
vn -0.622913 -0.043194 0.781098
vn -0.622910 -0.043300 0.781094
vn 0.222330 -0.041244 0.974099
vn 0.222329 -0.041370 0.974094
vn 0.900259 -0.039723 0.433538
vn 0.900257 -0.039777 0.433537
vn 0.900258 -0.039777 -0.433536
vn 0.900260 -0.039723 -0.433537
vn 0.207568 -0.360257 -0.909467
vn 0.207833 -0.357162 -0.910626
vn -0.578146 -0.374422 -0.724952
vn -0.578781 -0.371888 -0.725749
vn -0.925189 -0.379507 0.000000
vn -0.925189 -0.379506 0.000000
vn -0.578776 -0.371890 0.725752
vn -0.578141 -0.374424 0.724955
vn 0.207840 -0.357161 0.910626
vn 0.207575 -0.360256 0.909466
vn 0.845234 -0.346264 0.407038
vn 0.844783 -0.347617 0.406821
vn 0.844785 -0.347618 -0.406818
vn 0.845236 -0.346265 -0.407035
vn 0.193851 -0.490911 -0.849369
vn 0.193851 -0.490911 -0.849369
vn -0.537003 -0.508146 -0.673361
vn -0.537003 -0.508146 -0.673361
vn -0.856811 -0.515630 0.000000
vn -0.856811 -0.515630 0.000000
vn -0.536997 -0.508148 0.673364
vn -0.536997 -0.508148 0.673364
vn 0.193857 -0.490909 0.849369
vn 0.193857 -0.490909 0.849369
vn 0.792038 -0.476650 0.381420
vn 0.792038 -0.476650 0.381420
vn 0.792039 -0.476650 -0.381416
vn 0.792039 -0.476650 -0.381416
vn 0.188965 0.527979 -0.827968
vn 0.188965 0.527979 -0.827968
vn 0.188965 0.527979 -0.827968
vn 0.188965 0.527979 -0.827968
vn -0.522545 0.545547 -0.655230
vn -0.522544 0.545547 -0.655230
vn -0.522545 0.545547 -0.655230
vn -0.522545 0.545547 -0.655230
vn -0.833084 0.553146 0.000000
vn -0.833084 0.553146 0.000000
vn -0.833084 0.553146 0.000000
vn -0.833084 0.553146 0.000000
vn -0.522536 0.545549 0.655234
vn -0.522536 0.545549 0.655234
vn -0.522536 0.545549 0.655234
vn -0.522536 0.545549 0.655234
vn 0.188973 0.527979 0.827966
vn 0.188973 0.527979 0.827966
vn 0.188973 0.527979 0.827966
vn 0.188973 0.527979 0.827966
vn 0.773183 0.513373 0.372340
vn 0.773183 0.513373 0.372340
vn 0.773183 0.513373 0.372340
vn 0.773183 0.513373 0.372340
vn 0.773184 0.513373 -0.372336
vn 0.773184 0.513373 -0.372336
vn 0.773184 0.513373 -0.372336
vn 0.773184 0.513373 -0.372336
vn 0.000000 1.000000 0.000000
vn 0.000000 1.000000 0.000000
vn 0.000000 1.000000 0.000000
vn 0.000000 1.000000 0.000000
vn 0.000000 1.000000 0.000000
vn 0.000000 1.000000 0.000000
vn 0.000000 1.000000 0.000000
vn 0.000000 -1.000000 0.000000
vn 0.000000 -1.000000 0.000000
vn 0.000000 -1.000000 0.000000
vn 0.000000 -1.000000 0.000000
vn 0.000000 -1.000000 0.000000
vn 0.000000 -1.000000 0.000000
vn 0.000000 -1.000000 0.000000
vn 0.000000 0.639548 0.768751
vn 0.000000 0.639548 0.768751
vn 0.000000 0.943083 0.332557
vn 0.000000 0.943083 0.332557
vn 0.000000 1.000000 0.000000
vn 0.000000 1.000000 0.000000
vn 0.000000 1.000000 0.000000
vn 0.000000 1.000000 0.000000
vn 0.000000 0.943083 -0.332556
vn 0.000000 0.943083 -0.332556
vn 0.000000 0.639549 -0.768751
vn 0.000000 0.639549 -0.768751
vn 0.000000 -1.000000 0.000000
vn 0.000000 -1.000000 0.000000
vn 0.000000 -1.000000 0.000000
vn 0.000000 -1.000000 0.000000
vn 0.768751 0.639549 0.000000
vn 0.768751 0.639548 0.000000
vn 0.332557 0.943083 0.000000
vn 0.332557 0.943083 0.000000
vn -0.768751 0.639548 0.000000
vn -0.768751 0.639549 0.000000
vn -0.332557 0.943083 0.000000
vn -0.332557 0.943083 0.000000
vn 0.000000 0.000000 1.000000
vn 0.000000 0.000000 1.000000
vn 1.000000 0.000000 0.000000
vn 1.000000 0.000000 0.000000
vn 0.000000 0.000000 -1.000000
vn 0.000000 0.000000 -1.000000
vn -1.000000 0.000000 0.000000
vn -1.000000 0.000000 0.000000
s 1
g pCylinder1
usemtl initialShadingGroup
f 1/8/1 2/9/2 9/17/3 8/16/4
s 2
f 2/9/5 3/10/6 10/18/7 9/17/8
s 3
f 3/10/9 4/11/10 11/19/11 10/18/12
s 4
f 4/11/13 5/12/14 12/20/15 11/19/16
s 5
f 5/12/17 6/13/18 13/21/19 12/20/20
s 6
f 6/13/21 7/14/22 14/22/23 13/21/24
s 7
f 7/14/25 1/15/26 8/23/27 14/22/28
s 8
f 2/2/29 1/1/30 15/31/31
f 3/3/32 2/2/29 15/31/31
f 4/4/33 3/3/32 15/31/31
f 5/5/34 4/4/33 15/31/31
f 6/6/35 5/5/34 15/31/31
f 7/7/36 6/6/35 15/31/31
f 1/1/30 7/7/36 15/31/31
s 9
f 65/82/37 66/83/38 67/32/39
f 66/83/38 68/84/40 67/32/39
f 68/84/40 69/85/41 67/32/39
f 69/85/41 70/86/42 67/32/39
f 70/86/42 71/87/43 67/32/39
f 71/87/43 72/88/44 67/32/39
f 72/88/44 65/82/37 67/32/39
s 1
f 8/29/4 9/28/3 17/34/45 16/33/46
s 2
f 9/28/8 10/27/7 18/35/47 17/34/48
s 3
f 10/27/12 11/26/11 19/36/49 18/35/50
s 4
f 11/26/16 12/25/15 20/37/51 19/36/52
s 5
f 12/25/20 13/24/19 21/38/53 20/37/54
s 6
f 13/24/24 14/30/23 22/39/55 21/38/56
s 7
f 14/30/28 8/29/27 16/33/57 22/39/58
s 1
f 16/33/46 17/34/45 24/41/59 23/40/60
s 2
f 17/34/48 18/35/47 25/42/61 24/41/62
s 3
f 18/35/50 19/36/49 26/43/63 25/42/64
s 4
f 19/36/52 20/37/51 27/44/65 26/43/66
s 5
f 20/37/54 21/38/53 28/45/67 27/44/68
s 6
f 21/38/56 22/39/55 29/46/69 28/45/70
s 7
f 22/39/58 16/33/57 23/40/71 29/46/72
s 1
f 23/40/60 24/41/59 31/48/73 30/47/74
s 2
f 24/41/62 25/42/61 32/49/75 31/48/76
s 3
f 25/42/64 26/43/63 33/50/77 32/49/78
s 4
f 26/43/66 27/44/65 34/51/79 33/50/80
s 5
f 27/44/68 28/45/67 35/52/81 34/51/82
s 6
f 28/45/70 29/46/69 36/53/83 35/52/84
s 7
f 29/46/72 23/40/71 30/47/85 36/53/86
s 1
f 30/47/74 31/48/73 38/55/87 37/54/88
s 2
f 31/48/76 32/49/75 39/56/89 38/55/90
s 3
f 32/49/78 33/50/77 40/57/91 39/56/92
s 4
f 33/50/80 34/51/79 41/58/93 40/57/94
s 5
f 34/51/82 35/52/81 42/59/95 41/58/96
s 6
f 35/52/84 36/53/83 43/60/97 42/59/98
s 7
f 36/53/86 30/47/85 37/54/99 43/60/100
s 1
f 37/54/88 38/55/87 45/62/101 44/61/102
s 2
f 38/55/90 39/56/89 46/63/103 45/62/104
s 3
f 39/56/92 40/57/91 47/64/105 46/63/106
s 4
f 40/57/94 41/58/93 48/65/107 47/64/108
s 5
f 41/58/96 42/59/95 49/66/109 48/65/110
s 6
f 42/59/98 43/60/97 50/67/111 49/66/112
s 7
f 43/60/100 37/54/99 44/61/113 50/67/114
s 1
f 44/61/102 45/62/101 52/69/115 51/68/116
s 2
f 45/62/104 46/63/103 53/70/117 52/69/118
s 3
f 46/63/106 47/64/105 54/71/119 53/70/120
s 4
f 47/64/108 48/65/107 55/72/121 54/71/122
s 5
f 48/65/110 49/66/109 56/73/123 55/72/124
s 6
f 49/66/112 50/67/111 57/74/125 56/73/126
s 7
f 50/67/114 44/61/113 51/68/127 57/74/128
s off
f 58/75/129 59/76/130 66/83/131 65/82/132
f 59/76/133 60/77/134 68/84/135 66/83/136
f 60/77/137 61/78/138 69/85/139 68/84/140
f 61/78/141 62/79/142 70/86/143 69/85/144
f 62/79/145 63/80/146 71/87/147 70/86/148
f 63/80/149 64/81/150 72/88/151 71/87/152
f 64/81/153 58/75/154 65/82/155 72/88/156
f 52/69/157 53/70/158 54/71/159 55/72/160 56/73/161 57/74/162 51/68/163
f 59/76/164 58/75/165 64/81/166 63/80/167 62/79/168 61/78/169 60/77/170
s 10
f 81/89/171 82/90/172 76/91/173 75/92/174
s off
f 75/92/175 76/91/176 78/93/177 77/94/178
s 11
f 77/94/179 78/93/180 83/95/181 84/96/182
s off
f 79/97/183 80/98/184 74/99/185 73/100/186
s 12
f 82/90/187 83/101/188 78/102/189 76/91/190
s 13
f 84/103/191 81/89/192 75/92/193 77/104/194
s 10
f 73/105/195 74/106/196 82/90/172 81/89/171
s 12
f 74/106/197 80/107/198 83/101/188 82/90/187
s 11
f 84/96/182 83/95/181 80/98/199 79/97/200
s 13
f 79/108/201 73/105/202 81/89/192 84/103/191
